####
#
# OBJ File Generated by Meshlab
#
####
# Object 1_C1_M_0.obj
#
# Vertices: 122
# Faces: 164
#
####
vn -1.5174119217218056 -2.0295054765675697 2.0348056540715751
v 17.5135000000000005 10.1313999999999993 15.0000000000000000
vn -1.3006353148841634 -2.2318242146165339 1.8930610257378306
v 17.8092000000000006 9.9362899999999996 15.0000000000000000
vn -1.2158925501767686 -2.1868454843980181 1.9032452847684791
v 17.5904999999999987 9.6411099999999994 14.5054999999999996
vn -0.9863920465856901 -1.3829955798240290 2.5876477936909699
v 10.7672000000000008 14.7500000000000000 14.6331000000000007
vn -0.9536625204387401 -1.2952821626200759 2.6179354830158736
v 10.7949999999999999 15.4591999999999992 15.0000000000000000
vn -0.9342814586707329 -1.3358566409755968 2.6713122701048713
v 10.5343999999999998 14.9753000000000007 14.6720000000000006
vn -1.1741132669607692 -1.8599125032197228 2.1951460404944845
v 15.3527000000000005 11.9321000000000002 15.0000000000000000
vn -1.3152824190250327 -1.8038944093625882 2.0951831190276278
v 15.7667000000000002 10.7661999999999995 14.2332000000000001
vn -1.2623350522676213 -1.8619041226493287 2.1704225381317950
v 15.6288999999999998 11.7456999999999994 15.0000000000000000
vn -1.1281347435252065 -1.8254039028271123 2.2575226062993687
v 14.0973000000000006 11.9329000000000001 14.3628999999999998
vn -1.1662589400395122 -1.8718088022100929 2.2706355284540072
v 15.0358000000000001 12.1247000000000007 15.0000000000000000
vn -1.2379519826775169 -1.7698552305218049 2.3750663511888241
v 14.2408000000000001 12.6449999999999996 15.0000000000000000
vn -0.9816190719622753 -1.4442066591508382 2.6330866736962797
v 11.5196000000000005 14.0500000000000007 14.5655000000000001
vn -1.0639567978983031 -1.3755444800981920 2.5408487712654617
v 11.8521999999999998 14.6265999999999998 15.0000000000000000
vn -1.3995121914789528 -1.7172921415327509 2.0701340052430086
v 16.4473999999999982 11.1661000000000001 15.0000000000000000
vn -1.1127256154493732 -1.9022939452030017 2.2417699166414113
v 14.6662999999999997 11.5198999999999998 14.3066999999999993
vn -1.2506935157422627 -1.4856814263947777 2.5034693591870396
v 12.8239000000000001 13.7668999999999997 15.0000000000000000
vn -1.0903642369601072 -1.4412700404151364 2.4611128449501538
v 11.8498000000000001 13.7547999999999995 14.5069999999999997
vn -1.1533373395685833 -2.2219393456103562 1.8374265670506267
v 18.3445999999999998 9.2229299999999999 14.4689999999999994
vn -1.2174352749139894 -2.1957736355394566 1.8007160406332519
v 18.7190000000000012 9.4680499999999999 15.0000000000000000
vn -1.2751841435287070 -2.0589297720907456 1.6855385073953841
v 18.8616999999999990 8.9471299999999996 14.4634999999999998
vn -1.5435481989038657 -1.9693727640656036 2.1757130294875022
v 17.1185000000000009 9.9186700000000005 14.5162999999999993
vn -1.4446921214208257 -2.1698889008153532 1.6644204035060000
v 20.0280999999999985 8.3663799999999995 14.7306000000000008
vn -1.4863115852970212 -1.6767916463384132 2.0193877616959091
v 16.4290999999999983 10.3383000000000003 14.3139000000000003
vn -1.6390313177197076 -1.6887646680059558 2.0812068771020931
v 16.8487000000000009 10.7766000000000002 15.0000000000000000
vn -0.7944200419840655 -1.1550245734165641 2.7686929938256157
v 8.6914350000000002 16.9166999999999987 14.9708000000000006
vn -1.4162320574925920 -2.1482219444355657 1.7578886026451737
v 19.0378000000000007 9.2675599999999996 15.0000000000000000
vn -1.4975171310910600 -2.1778934751408245 1.7183296148941896
v 20.0232499999999973 8.5778999999999996 15.0000000000000000
vn -1.4806942095223283 -2.1472621999459647 1.7394347513043018
v 19.7300000000000004 8.5106900000000003 14.6632999999999996
vn -0.8056278130953660 -1.1683484886787148 2.7947514727981870
v 8.7377350000000007 16.9548500000000004 15.0000000000000000
vn -1.2293702703891258 -1.6134983804910661 2.3633364920643944
v 13.5998999999999999 13.1577000000000002 15.0000000000000000
vn -1.2073048110927325 -1.7274114866096231 2.3720701918465448
v 13.6064000000000007 12.3061000000000007 14.4220000000000006
vn -1.2192271664720227 -1.6171788475819737 2.4521382973167443
v 13.2167999999999992 13.4425000000000008 15.0000000000000000
vn -1.1417186547430240 -1.6276464148173715 2.3498390642379658
v 12.9532000000000007 12.8218999999999994 14.4425000000000008
vn -0.9700421080290544 -1.3106214800361313 2.7769714348388441
v 10.0282000000000000 15.9928000000000008 15.0000000000000000
vn -0.9164803091084950 -1.2293475093366468 2.7091244768331926
v 9.6507700000000014 15.8692999999999991 14.8100499999999986
vn -1.1898608321405844 -1.5897413270934460 2.4787297535799739
v 12.5473999999999997 13.1567000000000007 14.4936000000000007
vn -0.0751003429623730 -0.1091065823894284 0.2616288355244838
v 8.5477799999999995 17.0855999999999995 15.0000000000000000
vn -2.6165689528533500 -4.2563801030275386 3.8083715433399057
v 17.5520162957037584 9.8844543045493047 14.7507664146467299
vn -2.4430021014450669 -4.4248426658850271 3.7291657664160143
v 17.7632520259662492 9.7274610053707793 14.7180511782382126
vn -1.9570554072965758 -2.6269676987034427 5.3587518059830375
v 10.7460928169255947 15.1848263619395567 14.8457929951482175
vn -2.2164757647903470 -3.8297936465290219 4.4606975569289062
v 15.1012883808650109 11.5339916178332444 14.5306073907505500
vn -2.3912800773871439 -3.8007521053512736 4.3916629401824139
v 15.3778304299848170 11.3562690274371860 14.5166092136888221
vn -1.2010257115700567 -1.8480562192980297 2.1411795209965865
v 15.4110499999999995 11.0029000000000003 14.2303499999999996
vn -2.3045950348751916 -3.7091382738659240 4.5173189575905912
v 14.4923012005510365 11.9188050830437060 14.5517792513247350
vn -1.1813951926009263 -1.8051300751830430 2.2837283576770755
v 14.6383000000000010 12.3848500000000001 15.0000000000000000
vn -2.2997561895499197 -3.6493552392889601 4.5683128413976259
v 14.2160938315970604 12.1950709144521792 14.6315812825231966
vn -1.0438468860296639 -1.3753897719390586 2.6245554012039958
v 11.1433999999999997 14.4000000000000004 14.5993000000000013
vn -2.0525883568835495 -2.7050214158046662 5.2862051449845229
v 10.9564476542119049 14.9372670363003284 14.8049420940238363
vn -1.0509811790685442 -1.3729820196092257 2.6344951665265208
v 11.5617999999999999 14.8470499999999994 15.0000000000000000
vn -2.7439778223945726 -3.6347730477069993 4.3261640315444945
v 16.1155316676303499 10.9914307449677526 14.6438028346708862
vn -1.3237581088846730 -1.8693858042134219 2.1500385078544015
v 16.0381499999999981 11.4558999999999997 15.0000000000000000
vn -1.1408582078840130 -1.8773859987372186 2.2457668539584632
v 14.3818000000000001 11.7263999999999999 14.3347999999999995
vn -2.2770553359849988 -3.7637672247235292 4.4859922718282945
v 14.9286594829430594 11.9317439152710687 14.7842678826641958
vn -2.2386271504390711 -3.7807781961672315 4.4911177557694311
v 14.7622773771985010 11.7077213799309785 14.5124692706077116
vn -1.2524404973225614 -1.4156059453859979 2.5093937533084736
v 12.3380499999999991 14.1967499999999998 15.0000000000000000
vn -2.2461762411746520 -2.8668801234103398 5.1121083884550824
v 11.9302355771295190 14.1296394086435679 14.7586008772361499
vn -2.3323174729887786 -4.4949424718320010 3.7193931484713207
v 18.4910813385550767 9.3658170494397925 14.7337367240821120
vn -1.1750285713346880 -2.2413796072284446 1.8614858249543693
v 18.6031499999999994 9.0850299999999997 14.4662499999999987
vn -2.5843607114734990 -4.4231211911558574 3.6286105714598094
v 18.7917971477729999 9.2054815212505634 14.7302588917610642
vn -2.9440211047491336 -3.7614828771144873 4.0479346449821501
v 17.2883980265623798 10.0602519802239314 14.7649896397783689
vn -1.2288916756073753 -2.1155438750733930 1.9706321372146842
v 17.3545000000000016 9.7798900000000000 14.5108999999999995
vn -1.4618385230609812 -2.2407424646889642 1.6467257636060386
v 20.5594499999999982 8.2177150000000001 15.0000000000000000
vn -1.4618385230609854 -2.2407424646889469 1.6467257636060577
v 20.4003249999999987 8.1977875000000004 14.8316250000000007
vn -1.1594407654151746 -2.2528173765050492 1.8574486212812835
v 18.2640999999999991 9.7021700000000006 15.0000000000000000
vn -2.3188131899583571 -4.5056246030444491 3.7149522100659302
v 18.0947941674792290 9.5718471639789264 14.7362545440137680
vn -1.1593701519860840 -2.2528076032541522 1.8575045503289163
v 17.9675499999999992 9.4320199999999996 14.4872499999999995
vn -1.6389998897397540 -1.6887904071649831 2.0811705175669326
v 17.1811000000000007 10.4540000000000006 15.0000000000000000
vn -3.2779641971635489 -3.3775843657228455 4.1623661752811483
v 16.9526471457432635 10.4162236712957572 14.7894308136134125
vn -3.2034864217684857 -3.4091358712835307 4.1933054635039548
v 16.6330956631679108 10.5428174225141333 14.6405053575430717
vn -1.6389649933821975 -1.6887938247499412 2.0811952260764790
v 16.7738000000000014 10.1284849999999995 14.4151000000000007
vn -1.6390532012701193 -1.6887087282919218 2.0811948095952548
v 16.6480499999999978 10.9713500000000010 15.0000000000000000
vn -3.0866539455059936 -3.4197327361689984 4.2667445322286497
v 16.4885686165511878 10.8616258653453741 14.7853682058398093
vn -1.4060262075399774 -1.7827370695825480 2.1712887607357212
v 16.0978999999999992 10.5522500000000008 14.2735500000000002
vn -2.9176912809459479 -4.3027484768654567 3.5282897566173310
v 19.0635265525745154 9.0405215411021800 14.7462448102372488
vn -2.9604970254502705 -4.2759469341065177 3.5256421800903484
v 19.4532815588253101 8.8139082252170535 14.7986859502466537
vn -1.4802581193832876 -2.1379784632895671 1.7628069637935924
v 19.2958500000000015 8.7289099999999991 14.5633999999999997
vn -2.5042641452871326 -3.2498568335057381 4.7580298013782594
v 13.6022333536867688 12.7322434750534352 14.7107691384173940
vn -2.4187233425889669 -3.4414669242190077 4.6596795976034837
v 13.9308618418292607 12.4739603072404908 14.7132582115673891
vn -1.2916969506378260 -1.6163565170788838 2.3640038357741608
v 13.9203499999999991 12.9013500000000008 15.0000000000000000
vn -1.1207522719539269 -1.8312487038046483 2.2934769033309057
v 13.8518500000000007 12.1195000000000004 14.3924500000000002
vn -2.4292611668345216 -3.2670270565968238 4.7857749542532693
v 13.2887061838750693 12.9463156132313699 14.6977385250912924
vn -1.2147169449511779 -1.6334005130732359 2.3929207902958098
v 13.2798000000000016 12.5640000000000001 14.4322499999999998
vn -0.9240816323373056 -1.3278879129131369 2.6930264068722232
v 10.4116000000000000 15.7259999999999991 15.0000000000000000
vn -1.8481458434818472 -2.6557285701868381 5.3860820896811843
v 10.2217731292279961 15.6126946376793239 14.8789916420913517
vn -2.3755405838209027 -3.1069967250557475 4.9150225424766605
v 12.7967907169625636 13.3448301692376674 14.7315771458319738
vn -1.2337906145273181 -1.4803645697115062 2.4810938442928276
v 12.1985999999999990 13.4557500000000001 14.5003000000000011
vn -1.0949578783726992 -1.9092647421341942 2.2065600368817910
v 14.9794000000000000 11.3008500000000005 14.2680500000000006
vn -0.8296145423020280 -1.1796552283196378 2.7910137303404823
v 9.2599750000000007 16.5884500000000017 15.0000000000000000
vn -0.8295163215322936 -1.1795140942792781 2.7911025722313503
v 9.1450949999999995 16.4198500000000003 14.8946000000000005
vn -1.0654436087285655 -1.3490079163629694 2.6567955512508115
v 11.1523000000000003 15.1654249999999990 15.0000000000000000
vn -2.5899414443495496 -3.7447784390011298 4.3293632782571230
v 15.7006363485585911 11.1691859417368207 14.5432078069528430
vn -2.6467487071913465 -3.7385026812776214 4.3007830850757562
v 16.0488343453178892 11.2177389882551619 14.7995052999537187
vn -0.2518503605183944 -0.3860424996730331 0.2837033439033353
v 20.9053875000000033 7.9920287499999993 15.0000000000000000
vn -1.3429267612891869 -2.0584715572325885 1.5127745380661921
v 20.7725500000000025 8.0291949999999996 14.9326500000000006
vn -2.8869594957412632 -3.5355114629357685 4.3162641719974930
v 16.2316160482449376 10.7047825728735297 14.4844332868967172
vn -1.4802464501926174 -2.1379727182841712 1.7628237301634655
v 19.3792375000000021 9.0311637499999993 15.0000000000000000
vn -1.8403004497568085 -2.6608833637943827 5.3862107543876352
v 10.4610383390352535 15.3820046136190491 14.8473496189671490
vn -0.8264642353891273 -1.1790929368805441 2.7895809023253060
v 8.9229574999999990 16.6629250000000013 14.9313000000000002
vn -1.6592376393250992 -2.3598450034187826 5.5817987811895193
v 9.0442404475384830 16.6645514115360527 14.9680266156367914
vn -2.3502714740185189 -3.7991662707454203 4.4165888474633901
v 15.2722627861073423 11.7177873675070572 14.7740241910926748
vn -2.6880769132592501 -3.6778552927759369 4.3254609553411694
v 15.8600487490054238 10.8988980737606234 14.4060504198539281
vn -2.5793211089942143 -3.7584097058131070 4.3236631090851168
v 15.6813208620823570 11.4639050410159804 14.7872638312772207
vn -2.0470788697156408 -2.7780047014591296 5.2504983374386942
v 11.5527646141169491 14.4334326759295148 14.7796402794443704
vn -2.0918159152019413 -2.7354063178806958 5.2554700266165861
v 11.2122343641844218 14.7110730737840179 14.7896890480501426
vn -1.2524404973225727 -1.4156059453860022 2.5093937533084651
v 12.5809749999999987 13.9818250000000006 15.0000000000000000
vn -2.5016124218776636 -2.8908045191597034 4.9858748563658839
v 12.4581502078077300 13.8162336972464903 14.8452842340955709
vn -1.2524404973225662 -1.4156059453859893 2.5093937533084802
v 12.0951249999999995 14.4116749999999989 15.0000000000000000
vn -2.4912175080507462 -2.8772449526101775 4.9990742780078277
v 12.1403017207117347 13.8833984599313052 14.7245349577115157
vn -1.4889165112207352 -2.2318300558082536 1.6577893844398619
v 20.3288249999999984 8.3681725000000000 15.0000000000000000
vn -2.9559921878363817 -4.4451552894342434 3.3133170022845193
v 20.2870183013060803 8.3380711045167999 14.9219274267642188
vn -1.4909812957187754 -2.1257291983163760 1.7522080063918470
v 19.7206750000000000 8.7947674999999990 15.0000000000000000
vn -0.9211898666879054 -1.3258390474184867 2.6882292884700902
v 9.9177274999999998 15.5975000000000001 14.7671749999999999
vn -0.9240578293114732 -1.3277963876532657 2.6930797021463135
v 10.2260637499999998 15.2864000000000004 14.7195875000000012
vn -0.8281499831428019 -1.1803339951773120 2.7891932740331571
v 9.0130474999999990 16.7620750000000029 15.0000000000000000
vn -1.6589063067825642 -2.3590303290995287 5.5822417765953940
v 9.3958217985272334 16.3564508306024763 14.9423152445775109
vn -0.8530004705665877 -1.1539472745023076 2.7069831680619876
v 9.6303662500000016 16.3280124999999998 15.0000000000000000
vn -0.8250190155845902 -1.1837356012447504 2.7876165297062854
v 9.3672325000000001 16.1767749999999992 14.8578999999999990
vn -2.3442222069180425 -3.6515305150815260 4.5438591689048096
v 14.6576673019669865 12.1507205145575625 14.8249556533823306
vn -2.3437418694823822 -3.2990148477870123 4.8054801967882321
v 13.1154402719785192 13.1749937542304121 14.7659171254206871
vn -2.3294305120438898 -3.6205444179675581 4.5762784001614429
v 14.3294460342369945 12.3670466250886637 14.8261544563626693
vn -2.4822193219541795 -2.9662178761933262 4.9515478032671858
v 12.4177552862673597 13.5543842230158003 14.6691431119615032
# 122 vertices, 0 vertices normals

f 3//3 40//40 39//39
f 45//45 119//119 47//47
f 45//45 55//55 54//54
f 58//58 59//59 60//60
f 61//61 62//62 39//39
f 65//65 66//66 58//58
f 40//40 67//67 66//66
f 61//61 68//68 69//69
f 70//70 71//71 69//69
f 21//21 75//75 60//60
f 75//75 77//77 76//76
f 28//28 29//29 23//23
f 78//78 79//79 80//80
f 83//83 78//78 82//82
f 26//26 30//30 38//38
f 90//90 89//89 100//100
f 115//115 99//99 100//100
f 35//35 117//117 36//36
f 41//41 49//49 91//91
f 34//34 82//82 120//120
f 2//2 39//39 40//40
f 39//39 2//2 1//1
f 4//4 49//49 6//6
f 9//9 101//101 103//103
f 4//4 48//48 105//105
f 48//48 13//13 104//104
f 92//92 93//93 103//103
f 11//11 54//54 7//7
f 20//20 58//58 60//60
f 58//58 19//19 59//59
f 60//60 59//59 21//21
f 1//1 61//61 39//39
f 61//61 22//22 62//62
f 39//39 62//62 3//3
f 110//110 28//28 111//111
f 20//20 65//65 58//58
f 65//65 2//2 66//66
f 58//58 66//66 19//19
f 2//2 40//40 66//66
f 40//40 3//3 67//67
f 66//66 67//67 19//19
f 22//22 61//61 69//69
f 61//61 1//1 68//68
f 25//25 70//70 69//69
f 70//70 24//24 71//71
f 69//69 71//71 22//22
f 70//70 25//25 73//73
f 51//51 102//102 96//96
f 70//70 96//96 24//24
f 27//27 60//60 75//75
f 60//60 27//27 20//20
f 112//112 97//97 76//76
f 97//97 75//75 76//76
f 75//75 21//21 77//77
f 31//31 78//78 80//80
f 78//78 32//32 79//79
f 80//80 79//79 12//12
f 47//47 121//121 79//79
f 81//81 79//79 32//32
f 34//34 83//83 82//82
f 83//83 32//32 78//78
f 82//82 78//78 31//31
f 84//84 35//35 85//85
f 36//36 113//113 35//35
f 84//84 98//98 5//5
f 33//33 17//17 86//86
f 17//17 106//106 107//107
f 107//107 109//109 122//122
f 16//16 88//88 42//42
f 88//88 44//44 43//43
f 115//115 30//30 99//99
f 116//116 90//90 118//118
f 5//5 41//41 91//91
f 41//41 6//6 49//49
f 104//104 13//13 57//57
f 18//18 57//57 13//13
f 104//104 50//50 105//105
f 51//51 93//93 92//92
f 94//94 63//63 95//95
f 64//64 95//95 63//63
f 51//51 96//96 73//73
f 97//97 27//27 75//75
f 85//85 98//98 84//84
f 114//114 98//98 85//85
f 100//100 99//99 90//90
f 7//7 101//101 9//9
f 43//43 101//101 42//42
f 44//44 92//92 43//43
f 44//44 102//102 92//92
f 102//102 44//44 8//8
f 43//43 103//103 101//101
f 103//103 43//43 92//92
f 54//54 11//11 119//119
f 4//4 105//105 49//49
f 48//48 104//104 105//105
f 49//49 105//105 91//91
f 104//104 14//14 50//50
f 105//105 50//50 91//91
f 92//92 102//102 51//51
f 52//52 93//93 15//15
f 93//93 52//52 103//103
f 9//9 103//103 52//52
f 54//54 55//55 42//42
f 109//109 107//107 56//56
f 108//108 14//14 57//57
f 18//18 109//109 57//57
f 63//63 111//111 64//64
f 111//111 63//63 110//110
f 23//23 111//111 28//28
f 111//111 23//23 64//64
f 96//96 70//70 73//73
f 73//73 25//25 72//72
f 73//73 72//72 15//15
f 8//8 74//74 102//102
f 96//96 102//102 74//74
f 74//74 24//24 96//96
f 51//51 73//73 15//15
f 28//28 112//112 29//29
f 76//76 29//29 112//112
f 76//76 77//77 29//29
f 113//113 85//85 35//35
f 85//85 113//113 114//114
f 114//114 6//6 98//98
f 41//41 98//98 6//6
f 98//98 41//41 5//5
f 33//33 86//86 120//120
f 109//109 18//18 87//87
f 16//16 42//42 55//55
f 88//88 43//43 42//42
f 89//89 115//115 100//100
f 26//26 99//99 30//30
f 90//90 116//116 89//89
f 117//117 89//89 116//116
f 117//117 118//118 36//36
f 118//118 117//117 116//116
f 119//119 46//46 121//121
f 56//56 108//108 57//57
f 47//47 79//79 81//81
f 45//45 54//54 119//119
f 45//45 47//47 10//10
f 15//15 93//93 51//51
f 10//10 47//47 81//81
f 86//86 122//122 37//37
f 119//119 11//11 46//46
f 45//45 10//10 53//53
f 121//121 12//12 79//79
f 33//33 120//120 31//31
f 17//17 107//107 122//122
f 37//37 120//120 86//86
f 12//12 121//121 46//46
f 54//54 101//101 7//7
f 107//107 106//106 56//56
f 57//57 14//14 104//104
f 101//101 54//54 42//42
f 119//119 121//121 47//47
f 120//120 82//82 31//31
f 69//69 68//68 25//25
f 122//122 109//109 87//87
f 86//86 17//17 122//122
f 55//55 53//53 16//16
f 56//56 57//57 109//109
f 55//55 45//45 53//53
f 122//122 87//87 37//37
f 34//34 120//120 37//37
# 164 faces, 0 coords texture

# End of File
