####
#
# OBJ File Generated by Meshlab
#
####
# Object 2_C1_M_1.obj
#
# Vertices: 96
# Faces: 156
#
####
vn -0.0091356511985987 3.1320938231156794 -0.2560957421187051
v 2.5125950000000001 49.8502499999999955 -25.3523500000000013
vn -0.0285080192009029 6.2623280821354168 -0.5106401887287437
v 3.2249455014598558 49.8902124678400085 -24.8948403247571726
vn -0.0087154010530802 3.1356935187138895 -0.1945467861651270
v 6.9985049999999998 49.5442500000000052 -30.0000000000000000
vn -0.0305455823654489 3.0849266191687428 -0.2330474791196802
v 4.0101628887864642 49.9999302288551277 -23.5628945127482794
vn -0.0822333408024824 6.2621425699647411 -0.5066008446469229
v 4.7920956505705936 49.9593904614434479 -24.2261257377475978
vn -0.0375720067986501 6.2557160074016238 -0.5852503933216455
v 9.1598025493339872 49.8378031294327855 -26.2280961337339491
vn -0.0455861405143214 6.2707674893700123 -0.3921534200846640
v 5.6518670028956910 49.5919666313691323 -29.1267981893473369
vn -0.0509095337450775 6.2712294354615858 -0.3838935871188329
v 5.0411565228166761 49.5723614765632874 -29.3590277910260546
vn -0.0066910849176281 6.2677911837027223 -0.4391025616377686
v 2.8233648551015138 49.6344625210826891 -28.1319849970652527
vn -0.0022862471963055 3.1029644416927216 -0.2056260312847108
v 2.4053399999999998 49.6006000000000000 -28.6199000000000012
vn -0.0236212152044410 6.2707151224777462 -0.3932446544162964
v 2.9868153846429557 49.5838254421484024 -28.8872260597933916
vn -0.0106123057775921 3.1284320997580810 -0.2467846166823049
v 2.5372349999999999 49.9181000000000026 -24.5305499999999981
vn -0.0118177197609667 3.1348631918785927 -0.2932883043124599
v 9.9700450000000007 49.8192500000000038 -26.4549999999999983
vn -0.0257750525698152 6.2629564770953392 -0.5028734056820774
v 8.7422071100058716 49.6937581277677793 -27.8715943851174472
vn -0.0165825923407774 3.1363660209766131 -0.1772177176160915
v 3.1061600000000000 49.5204499999999967 -30.0000000000000000
vn -0.0244691464985772 3.1365184270072830 -0.1773022992117554
v 3.8791000000000002 49.5262000000000029 -30.0000000000000000
vn -0.0540186218565938 6.2720209695380262 -0.3703216777755354
v 4.2742224487831884 49.5608638260894239 -29.4463339434562990
vn -0.0000218753812578 3.1489380691726190 -0.2556982972881189
v 2.4822549999999999 49.7712500000000020 -26.3324500000000015
vn -0.0202072593405502 6.2620311425635276 -0.5146956189861984
v 3.1230380953753505 49.8112746902396566 -25.8519947314453482
vn -0.0190286197993289 6.2706503066686654 -0.3961281467405064
v 7.0468213080311441 49.6009382518778281 -29.0828011329534775
vn -0.0077422799667613 6.2698294215973007 -0.4093221087267058
v 8.4612626038249363 49.5904177598564573 -29.3134228665948626
vn -0.0315922143524774 3.0481939096425634 -0.2976856515709214
v 9.0590899999999994 50.0000000000000000 -24.5548999999999999
vn -0.0885927404058200 6.2598984550290435 -0.5328607409860606
v 6.3732269706953186 49.8836730865475602 -25.3594903189725116
vn -0.0822055217254632 6.2607522005146050 -0.5240533628887070
v 5.5525404033102799 49.8586831280471614 -25.5337839701521645
vn -0.0053253612990251 6.2689861223373669 -0.4216655486622261
v 9.2935963818036846 49.5980580213330313 -29.1921206669017153
vn -0.0507289252000231 6.2613979970524323 -0.5199179581359064
v 8.2483809519023890 49.7363187047006718 -27.3096978547255063
vn -0.0430175984276000 6.2638031128543510 -0.4900082857633803
v 7.4840234444925917 49.7012276777114295 -27.6614506691771993
vn -0.1118602829288179 6.2587838378606859 -0.5403790085580414
v 6.5585507480900880 49.9567461887993787 -24.5239172038671249
vn -0.0582365764551374 6.2704685733875989 -0.3952300609160923
v 4.6620824795721294 49.6065837207192502 -28.7640604478099995
vn -0.0329686561571748 6.2682426660123083 -0.4306402797772979
v 3.4377473915982271 49.6381218830111308 -28.0988061811806880
vn -0.0667976105040298 6.2628452336299922 -0.5007148989769165
v 4.8543584708309320 49.7670932577008784 -26.5476198786912541
vn -0.0535582325731856 6.2581192805029460 -0.5579081106609473
v 8.3907252552515530 49.8079106506145664 -26.4956440686618926
vn -0.0576064683051283 6.2682441797477617 -0.4279540293122128
v 5.1441004899678493 49.6596476973159824 -27.9907914439831806
vn -0.0554553704663730 6.2682488485551380 -0.4288502090670082
v 4.3090005495167150 49.6547107634134903 -27.9618385168053827
vn -0.0274227080719937 6.2709118478925223 -0.3915196525750135
v 6.3605807969933714 49.5755016878380914 -29.4575155370641077
vn -0.0179431874981373 3.1333927074375501 -0.2182939342179416
v 2.5698449999999999 49.9900499999999965 -23.5543000000000013
vn -0.0404869275148615 6.2653385012933089 -0.4712072142092928
v 3.2296063839085232 49.9641993440895789 -23.9630259552491793
vn -0.0190031938671030 3.1037149672087385 -0.2197032820845917
v 3.0052200000000000 50.0000000000000000 -23.4422500000000014
vn -0.0114889611229519 6.2660631214625022 -0.4631470546626782
v 3.1600367795560258 49.6872267541169137 -27.4074401628789239
vn -0.0007879029240592 3.0985559471682143 -0.2334795436594603
v 2.4370149999999997 49.6972500000000039 -27.2604499999999987
vn -0.0210252520123154 3.1358381255094914 -0.1906541527666876
v 5.5352249999999996 49.5377000000000010 -30.0000000000000000
vn -0.0190443945641136 6.2704750519355326 -0.3989154512031853
v 7.5338987117232579 49.5944008092147754 -29.2119669791832628
vn -0.0766263100875771 6.2556798252330266 -0.5821049587770823
v 7.9428186181723355 49.8718404067401906 -25.7505564335352837
vn -0.0609861106685423 6.2595419372233962 -0.5409202156901958
v 7.7568029273200434 49.7837906289144598 -26.7037516690362118
vn -0.0445098225144513 3.1786596506930600 -0.2689846748214577
v 5.7237851948545186 50.0000000000000000 -23.8980952829846167
vn -0.0811936295568545 6.2600712545771025 -0.5322792714384039
v 5.6310895348403873 49.9282038712202123 -24.7210093407263152
vn -0.0510773466730736 3.2433845162427577 -0.3104010924752016
v 8.2312149999999988 50.0000000000000000 -24.4608500000000006
vn -0.0975245867215990 6.2542656195382271 -0.5936577051515139
v 8.0115051025214186 49.9528262125680627 -24.9160964899205055
vn -0.0780167958734128 6.2584629059281287 -0.5506057506102824
v 7.1011520176931171 49.8365356295226078 -26.0067834893503225
vn -0.1142556562044360 6.2564999549158573 -0.5664890386992083
v 7.3339150336987959 49.9250953108707876 -25.0893043985250657
vn -0.0527017078640136 6.2619319400275435 -0.5133808213721684
v 6.8771194642831652 49.7568120927680795 -26.9261568084848015
vn -0.0006856858242223 3.1350695286798733 -0.2029596824131162
v 8.6897799999999989 49.5459499999999977 -30.0000000000000000
vn -0.0146840039686968 1.7481901944991489 -0.1727908085158150
v 9.9765999999999995 49.9911999999999992 -24.7326000000000015
vn 0.0024172075363707 3.1589043114066238 -0.2237938268013409
v 2.4243800000000002 49.6341999999999999 -28.1400000000000006
vn -0.0051295283384254 3.1353471362771970 -0.1986436034802044
v 7.7449899999999996 49.5452999999999975 -30.0000000000000000
vn -0.0092440611994308 3.1283390059425367 -0.1841728152348324
v 2.3994650000000002 49.5532500000000056 -29.3756500000000003
vn -0.0209202102508767 3.1291240350343426 -0.3100228967418913
v 9.9722249999999999 49.9094000000000051 -25.5508999999999986
vn -0.0137059019136137 6.2629082703478014 -0.5031825587935363
v 3.1325056241339264 49.7463094398066161 -26.6321428020960020
vn -0.0164198743878211 6.2626452446229965 -0.5070710191231617
v 9.3703949491691709 49.7000150595525056 -27.8173397006218828
vn -0.0093978169393448 3.0971698290819178 -0.2611279700155924
v 9.9743200000000005 49.7372499999999960 -27.3834000000000017
vn -0.0141581476549440 3.1356484582796993 -0.1940812750569743
v 6.2887000000000004 49.5416000000000025 -30.0000000000000000
vn -0.0029955575079851 3.1420095039382017 -0.2114514934334135
v 9.9390850000000004 49.5874999999999986 -29.3616000000000028
vn 0.0011657549281252 1.5656671562222149 -0.1027571700251599
v 9.9401799999999998 49.5456000000000003 -30.0000000000000000
vn 0.0000645524171460 3.1350708345154144 -0.2031366398119630
v 9.4029600000000002 49.5459999999999994 -30.0000000000000000
vn -0.0085330845737164 3.1556767330193436 -0.2373295984545346
v 9.9446430985719036 49.6547368807811580 -28.4089478087655465
vn -0.0233418790840124 3.1361202942162505 -0.1838390461646405
v 4.6728900000000007 49.5317000000000007 -30.0000000000000000
vn -0.0624910978283261 6.2544750485771550 -0.5965630642625633
v 8.5061084381275727 49.8846796689856689 -25.6764032064814955
vn -0.0150638780956545 6.2595482867817029 -0.5439372328462431
v 9.4651873816162286 49.7611080395055865 -27.0901356022252564
vn -0.0516719297072823 6.2702995945326672 -0.3988447224602231
v 5.4281610756611576 49.6246108980133727 -28.5822195681231790
vn -0.0067674788467824 1.5679915661193693 -0.0900339021900473
v 2.3994900000000001 49.5174000000000021 -30.0000000000000000
vn -0.0404836716617928 6.2651272820510862 -0.4723998171018025
v 3.7490964578209005 49.7017267184874001 -27.2302104374992844
vn -0.0687809640587407 6.2611420906824957 -0.5212453052970593
v 6.2081868593335789 49.8105508446302139 -26.2127342790046924
vn -0.0560766572532800 6.2674057440867941 -0.4402954671585678
v 5.7871951664135963 49.6682824259254900 -27.9525816772043498
vn -0.0425263798415548 6.2614284754260296 -0.5204834359766154
v 3.9300200319367979 49.8588972471030942 -25.3174749326442985
vn -0.0613032505224234 6.2633093703646328 -0.4953784591321962
v 6.0452425950378297 49.7352895672604447 -27.1039871276800426
vn -0.0680475343663010 6.2641611126442731 -0.4836027858897137
v 5.4600443404761663 49.7192267831633359 -27.2318000257913759
vn -0.0457078484904700 3.0816681112493440 -0.2348812662341736
v 4.8567200000000001 50.0000000000000000 -23.7058999999999997
vn -0.0389410105938590 6.2661342268549429 -0.4603501625133335
v 6.6126930755693785 49.6834493082771047 -27.8409599465926263
vn -0.0600068096262785 6.2640848361501273 -0.4852275654740704
v 4.3900582643794239 49.7215844979020716 -27.0511381547847201
vn -0.0332834090522058 6.2697770683614387 -0.4086861102264547
v 6.3044196160879862 49.6245317161061834 -28.6849921757914501
vn -0.0276646016902506 6.2670471124615919 -0.4478624932876675
v 8.0976045663336205 49.6477585135986175 -28.4272171017595348
vn -0.0601030475277312 3.0298280760289900 -0.2670389922982505
v 6.6978000000000000 50.0000000000000000 -24.0644999999999989
vn -0.0561467644127118 6.2706695900602734 -0.3914105857422964
v 3.8594811233871620 49.5931514209314628 -28.8350504968343451
vn -0.0561705110185289 6.2626474644802697 -0.5041517783792644
v 3.9759154185872729 49.9316238872909679 -24.4547073859955972
vn -0.0234864844371018 6.2684391065884899 -0.4285828790202674
v 7.2041524684332288 49.6409438510233514 -28.4681346900577061
vn -0.0684053801223460 3.1662314447035307 -0.2842563525296464
v 7.5837505886750067 50.0000000000000000 -24.3087505063931282
vn -0.0450381540465095 6.2622362590059684 -0.5103833079973373
v 3.9635271359082460 49.7803682524247151 -26.2722760369591448
vn -0.0089244813238343 1.5122063411515776 -0.0996069347443024
v 2.5749599999999999 50.0000000000000000 -23.4037000000000006
vn -0.0367050337161206 6.2598752752291729 -0.5392463503353557
v 8.7840523444666037 49.7630955887323196 -27.0510568230463875
vn -0.0579932736115097 6.2530604253569511 -0.6117193976107115
v 9.1521176781843643 49.9286053838039621 -25.2958278326180839
vn -0.0684586914220235 6.2616160390696161 -0.5150594463880195
v 4.7904851497257965 49.8235109533130824 -25.8292437768783678
vn -0.0704736222530989 6.2604316706639311 -0.5293636622256692
v 4.7530497481465810 49.8956556050899422 -24.9677847355414286
vn -0.0749685580341748 6.2621058675362855 -0.5086347324835734
v 5.4864373002450941 49.7825249388128483 -26.4412269155469808
vn -0.0643532242940453 6.2648520741405083 -0.4742595145627294
v 4.9010737565038562 49.7064416362471420 -27.3105844536431981
vn -0.0409950209380030 6.2726397192657091 -0.3610025983891497
v 3.3676063564056440 49.5529852127694426 -29.4473240053295449
vn -0.0146452654748573 6.2666808785245065 -0.4538654350274782
v 9.0895005338046708 49.6400890436844904 -28.5783014793419170
# 96 vertices, 0 vertices normals

f 1//1 12//12 2//2
f 10//10 9//9 11//11
f 12//12 37//37 2//2
f 16//16 15//15 95//95
f 22//22 53//53 90//90
f 24//24 46//46 23//23
f 8//8 17//17 29//29
f 33//33 29//29 34//34
f 96//96 25//25 21//21
f 3//3 20//20 42//42
f 96//96 14//14 59//59
f 36//36 38//38 37//37
f 8//8 41//41 66//66
f 42//42 81//81 21//21
f 45//45 28//28 46//46
f 47//47 22//22 90//90
f 50//50 49//49 23//23
f 51//51 49//49 44//44
f 38//38 4//4 37//37
f 53//53 57//57 90//90
f 74//74 91//91 87//87
f 37//37 12//12 36//36
f 2//2 19//19 1//1
f 9//9 54//54 40//40
f 55//55 3//3 42//42
f 42//42 21//21 55//55
f 18//18 1//1 19//19
f 58//58 39//39 40//40
f 59//59 68//68 60//60
f 41//41 35//35 61//61
f 62//62 63//63 64//64
f 96//96 21//21 81//81
f 25//25 64//64 52//52
f 39//39 9//9 40//40
f 59//59 60//60 65//65
f 55//55 21//21 52//52
f 6//6 57//57 13//13
f 17//17 8//8 66//66
f 3//3 35//35 20//20
f 56//56 10//10 11//11
f 35//35 3//3 61//61
f 19//19 58//58 18//18
f 58//58 40//40 18//18
f 59//59 14//14 89//89
f 65//65 62//62 25//25
f 66//66 16//16 17//17
f 8//8 29//29 69//69
f 6//6 13//13 68//68
f 13//13 60//60 68//68
f 14//14 96//96 81//81
f 62//62 64//64 25//25
f 10//10 54//54 9//9
f 59//59 89//89 68//68
f 15//15 70//70 56//56
f 71//71 58//58 87//87
f 58//58 71//71 39//39
f 23//23 72//72 24//24
f 80//80 69//69 73//73
f 72//72 51//51 75//75
f 50//50 28//28 86//86
f 75//75 73//73 76//76
f 73//73 33//33 76//76
f 67//67 43//43 48//48
f 75//75 78//78 73//73
f 34//34 71//71 79//79
f 9//9 39//39 30//30
f 39//39 71//71 30//30
f 29//29 17//17 83//83
f 83//83 34//34 29//29
f 73//73 78//78 80//80
f 26//26 14//14 81//81
f 81//81 27//27 26//26
f 37//37 84//84 2//2
f 45//45 82//82 28//28
f 9//9 30//30 11//11
f 85//85 78//78 27//27
f 58//58 19//19 87//87
f 77//77 45//45 5//5
f 93//93 91//91 24//24
f 43//43 67//67 32//32
f 67//67 90//90 6//6
f 6//6 32//32 67//67
f 20//20 35//35 80//80
f 80//80 85//85 20//20
f 73//73 69//69 33//33
f 2//2 84//84 74//74
f 51//51 78//78 75//75
f 35//35 7//7 80//80
f 7//7 69//69 80//80
f 38//38 36//36 88//88
f 27//27 78//78 51//51
f 4//4 77//77 5//5
f 44//44 26//26 27//27
f 31//31 93//93 76//76
f 34//34 79//79 94//94
f 50//50 43//43 49//49
f 80//80 78//78 85//85
f 27//27 51//51 44//44
f 19//19 2//2 74//74
f 19//19 74//74 87//87
f 46//46 5//5 45//45
f 31//31 79//79 87//87
f 23//23 28//28 50//50
f 42//42 20//20 85//85
f 49//49 51//51 72//72
f 34//34 30//30 71//71
f 85//85 27//27 81//81
f 41//41 7//7 35//35
f 42//42 85//85 81//81
f 34//34 83//83 30//30
f 4//4 84//84 37//37
f 43//43 44//44 49//49
f 23//23 49//49 72//72
f 82//82 86//86 28//28
f 30//30 83//83 11//11
f 16//16 95//95 17//17
f 24//24 92//92 46//46
f 69//69 7//7 8//8
f 29//29 33//33 69//69
f 32//32 6//6 89//89
f 41//41 8//8 7//7
f 46//46 28//28 23//23
f 90//90 57//57 6//6
f 43//43 32//32 44//44
f 84//84 5//5 92//92
f 79//79 71//71 87//87
f 91//91 31//31 87//87
f 91//91 74//74 92//92
f 91//91 92//92 24//24
f 31//31 94//94 79//79
f 93//93 72//72 75//75
f 72//72 93//93 24//24
f 93//93 31//31 91//91
f 31//31 76//76 94//94
f 76//76 93//93 75//75
f 34//34 94//94 33//33
f 84//84 4//4 5//5
f 33//33 94//94 76//76
f 83//83 95//95 11//11
f 95//95 83//83 17//17
f 92//92 5//5 46//46
f 84//84 92//92 74//74
f 95//95 56//56 11//11
f 48//48 43//43 50//50
f 86//86 47//47 48//48
f 95//95 15//15 56//56
f 21//21 25//25 52//52
f 67//67 47//47 90//90
f 67//67 48//48 47//47
f 14//14 26//26 89//89
f 89//89 6//6 68//68
f 96//96 65//65 25//25
f 96//96 59//59 65//65
f 26//26 44//44 32//32
f 86//86 48//48 50//50
f 89//89 26//26 32//32
# 156 faces, 0 coords texture

# End of File
