####
#
# OBJ File Generated by Meshlab
#
####
# Object 3_C1_M_2.obj
#
# Vertices: 93
# Faces: 148
#
####
vn 0.0766022649976553 6.1352299302529065 -1.3500274810216581
v -8.3856440074123633 49.2642608316776673 -29.5214219548978072
vn 0.0660497310062723 6.1385096675720021 -1.3306502880752977
v -7.7363034653632656 49.3915218936763054 -28.8805700749208327
vn 0.1894542109743222 6.1174356460889951 -1.4207179920425834
v -8.4856684748049283 49.4154339163859717 -28.8695729558208782
vn 0.2318665051278495 6.1718569202854043 -1.1542155731539390
v -8.0327598084758893 49.7301049702721087 -27.3098434089410205
vn 0.1093853843272574 6.2448129103569814 -0.6841830893433183
v -3.1177757827398858 49.8710053080226601 -25.2016351972629380
vn 0.1953467755598593 6.2437655483391303 -0.6738362399473475
v -3.9529056218051215 49.9296136980230685 -24.8469013108185806
vn 0.1387301559505151 3.0866699921311782 -0.3758824449435356
v -5.6759797783144164 49.9974351506175125 -24.8456827876552389
vn 0.1155222725387851 6.2309453321034107 -0.7994023514236106
v -3.9858653642501172 49.7199471505791948 -26.6354934813748088
vn 0.1011609125977110 6.2383898474069372 -0.7417958346488096
v -3.2831096774892057 49.7645388656187535 -26.1623686320895175
vn 0.1699989660259097 6.2304486826152230 -0.7938924635292856
v -4.4817744522389855 49.7785312373001076 -26.2518887466794233
vn 0.0717481348524164 6.2262062919176273 -0.8411852322098909
v -2.8043103090924539 49.4449283389933996 -28.5927375984379424
vn 0.0340753870152516 6.2250590178457417 -0.8514104633095865
v -3.5671679244500520 49.5136090614657363 -28.1415277642163417
vn 0.1705487604377385 3.2297295553180474 -0.4945041337054723
v -7.3641000000000005 50.0000000000000000 -25.5644500000000008
vn 0.2369848333207457 6.1808050089548132 -1.1040537367635825
v -7.5563054004721977 49.7869397595484102 -26.8907311253849599
vn 0.1700615604781786 6.1838503594627205 -1.0993791606761547
v -6.9293234995213755 49.6699781658938164 -27.4321897147236022
vn 0.2322870318970592 6.2136910666785452 -0.9013239054383860
v -5.8880000270453170 49.8087909827471549 -26.3726496492007456
vn 0.2192065375497436 6.1604708096339502 -1.2152880887975985
v -8.8177660682744055 49.7497166341769343 -27.3614481803908234
vn 0.0380015418202982 3.0842259598867114 -0.3485271783433577
v -2.4655999999999998 49.7905999999999977 -25.8499000000000017
vn 0.0450040443685685 6.1910495721255696 -1.0678232016126514
v -5.9394747638775840 49.4977010144092162 -28.3436203337325168
vn 0.0181482478986169 6.2041218673797891 -0.9921176008294690
v -5.1497170423796410 49.4725238609493729 -28.4521907630168123
vn 0.0248029662995097 1.3987429482369040 -0.1372127348911030
v -2.5366800000000000 50.0000000000000000 -23.8374999999999986
vn 0.0720406629274449 3.0759125397115286 -0.3110390816834140
v -3.4332850000000019 50.0000000000000000 -24.0191000000000017
vn 0.0659981394772158 6.2175219635590739 -0.9029554561680269
v -4.4947580364137050 49.5758549873575802 -27.7393688270861141
vn -0.0121095093973457 3.0755694637192117 -0.6292630779590425
v -7.9566900000000000 49.1644000000000005 -30.0000000000000000
vn -0.0529417167665188 6.1640901398894208 -1.2147118055430510
v -7.3671137971370513 49.2676827056306834 -29.4997336978582467
vn 0.1271390990785343 3.1850456754486451 -0.5304157279967753
v -9.3142500000000013 50.0000000000000000 -26.1279000000000003
vn 0.1456628913124292 3.0981617073887255 -0.5073565916808794
v -8.5583200000000001 50.0000000000000000 -25.9114000000000004
vn 0.0866353584516638 6.1860814245336080 -1.0958611120299668
v -6.4650627883832916 49.5426353361614105 -28.1052532943995175
vn -0.1182010611458348 6.1936519765498197 -1.0465762341498068
v -5.9515551530266890 49.2489385550550267 -29.7143099694656385
vn -0.1439770937529882 6.2014808663385521 -0.9994296003324038
v -5.4990996483639805 49.2636849466243305 -29.6940201642125601
vn -0.0423968332647584 6.1896809353630271 -1.0759836585634950
v -5.6921939191579787 49.3621496953568482 -29.0766341186665507
vn 0.1357066136237612 6.2136264262013281 -0.9219896342772826
v -5.2814249831447375 49.6812323303661856 -27.1058710927438113
vn 0.2369127922741565 6.2327463958372702 -0.7577030099319632
v -4.9275740842824680 49.9256171836860432 -25.1979006062739046
vn 0.2348561815211337 6.1968558926917625 -1.0075819420339647
v -6.6962416602927188 49.7941523181246808 -26.6881495681222667
vn 0.1625998690616993 6.1343117661545463 -1.3432785640896141
v -8.9907235299180037 49.5598073725943422 -28.3347394409476756
vn 0.2110474968826155 6.1109475166098317 -1.4450606894542317
v -9.3834037370949819 49.3298934499415083 -29.3574809823364866
vn 0.0732962623318461 3.0445437196375575 -0.7281689796359119
v -9.0410949999999985 49.1610000000000014 -30.0000000000000000
vn 0.0754525112477874 3.0623860081629317 -0.6564578710826395
v -9.9602199999999996 49.6931999999999974 -27.7870999999999988
vn 0.1757583209397913 6.1478263252350018 -1.2822824403645066
v -9.6495513864971265 49.8125891950625501 -27.2022175323184037
vn 0.1645319352154100 3.0765098006846525 -0.4125572300907255
v -6.5473600000000003 50.0000000000000000 -25.2001999999999988
vn 0.1316696067568724 3.2029845012581188 -0.3589952616352561
v -4.7507700000000010 50.0000000000000000 -24.5011500000000026
vn -0.0251077823461771 6.2247427818110541 -0.8528085943699245
v -3.5017091494976662 49.3061150272175794 -29.6644216748428704
vn -0.0600981005573542 3.1065342062399850 -0.4672438101164725
v -4.4097100000000005 49.2424999999999997 -30.0000000000000000
vn 0.0369906123995240 3.1319447435527961 -0.3925355208484433
v -2.4418199999999999 49.6651499999999970 -26.8832999999999984
vn -0.0754098673680277 3.1026728002457098 -0.4866096614664153
v -5.1649900000000004 49.2235000000000014 -30.0000000000000000
vn 0.2408874234022525 6.1764082568791547 -1.1216042594250553
v -9.3161909127409128 49.9271227193932745 -26.5640752593736345
vn 0.0385387475776337 3.1510349417632351 -0.3759973310945672
v -2.4658000000000002 49.7593000000000032 -26.1214000000000013
vn -0.0577410167067575 3.0869183157187714 -0.5636732587445561
v -6.8929499999999999 49.1803999999999988 -30.0000000000000000
vn 0.1541658590518062 6.1479786619872741 -1.2866085240292719
v -9.4545962221656428 49.6759538650268269 -27.8059437275924068
vn 0.0761990120983767 3.0567240935158746 -0.6671696149011470
v -9.9482900000000001 49.5532000000000039 -28.4455999999999989
vn -0.0952162718797281 3.0954195251441696 -0.5314820000121294
v -6.8772000000000002 49.1809000000000012 -30.0000000000000000
vn -0.1062833734148557 6.1708505133903362 -1.1761265921987332
v -6.5575913704455999 49.2619961014528869 -29.5849445255370043
vn 0.0337253791075450 3.1160308884352084 -0.4171072961515119
v -2.3855649999999997 49.4454500000000010 -28.5503999999999998
vn 0.0426513085804603 3.1238022815878810 -0.3187432997437892
v -2.5075200000000000 49.9168000000000021 -24.6963999999999970
vn -0.0023380071949036 3.0814514602555882 -0.3933014556426574
v -2.3625374006011373 49.3280913125747418 -29.4700054334679997
vn -0.0163567866340415 3.1143554564919724 -0.3948524808358341
v -2.5529549999999999 49.2600500000000068 -30.0000000000000000
vn -0.0387669958144303 3.1168517780707132 -0.4131412473783203
v -3.5848300000000002 49.2605999999999966 -30.0000000000000000
vn -0.0776085040630447 3.1024051402740733 -0.4886555818128768
v -5.7281449999999996 49.2096500000000034 -30.0000000000000000
vn 0.1155489548175520 6.1608542392115675 -1.2251870633617461
v -7.3124574305627732 49.5446676866105875 -28.1690922755371460
vn 0.1318258299344383 6.2496311429913192 -0.6344121275771019
v -3.2785562841411346 49.9617509313130412 -24.3615136612212702
vn 0.1923778804632337 6.1424097635192609 -1.3031718675382995
v -8.2232625079012767 49.5762345960222106 -28.1474333653344999
vn 0.1406758963545988 3.1061506498228235 -0.4967152477475207
v -7.7864300000000002 50.0000000000000000 -25.6892999999999994
vn 0.0403311338653218 3.0913264697357334 -0.4029143499822793
v -2.4056750000000000 49.5661000000000058 -27.6578499999999998
vn -0.0781660481844873 3.0951275689377011 -0.5361742422944765
v -6.7820400000000003 49.1835999999999984 -30.0000000000000000
vn -0.0109546974669474 3.0730893840643452 -0.6514615825236045
v -8.1492950000000004 49.1636500000000041 -30.0000000000000000
vn -0.0259147951638197 1.5711588025331436 -0.1923964518559634
v -2.3680400000000001 49.2631000000000014 -30.0000000000000000
vn 0.1392553149962856 3.0477084653019149 -0.6989843421092211
v -9.9223049999999997 49.3664500000000004 -29.3054500000000004
vn 0.0691342016153655 6.2284452213805039 -0.8238481610020222
v -2.9225995601629373 49.5518066321730331 -27.8195799023305028
vn 0.0650509861742111 1.5725064904231818 -0.3830536691166002
v -9.8939599999999999 49.1944999999999979 -30.0000000000000000
vn 0.1493287141094342 6.2384725835752377 -0.7328522763024233
v -3.8163818812577452 49.8275791577768956 -25.7163818391947387
vn 0.0393982656548388 3.1281137601139095 -0.3332258629668943
v -2.5014099999999999 49.8971000000000018 -24.8838000000000008
vn 0.0522204324281495 1.7505251572152214 -0.2996606894451660
v -9.9586100000000002 50.0000000000000000 -26.2502999999999993
vn 0.0899253934770637 3.0533834872027645 -0.5839256446298043
v -9.9696013380916657 49.9109624080624386 -26.7654123292257609
vn 0.1014169413725023 2.9339771441571445 -0.2915257431000189
v -4.0783699999999996 50.0000000000000000 -24.1832999999999991
vn 0.2774169531921165 6.2257691370191184 -0.8000671537804727
v -5.7216167979612402 49.9141132440510518 -25.5452128187131180
vn -0.0708383933985184 6.2197006234557604 -0.8852436718293480
v -4.0642089897104885 49.3587144803029503 -29.2672411507207961
vn -0.0203819489833381 6.2191937726875652 -0.8929809376114889
v -4.2679089593519821 49.4396112589259857 -28.6553408478486134
vn -0.0984942796691333 6.2082424935234339 -0.9616191519626832
v -4.8593471616752515 49.3414572957857871 -29.2931751272041367
vn 0.0360820365521327 6.2295755797978600 -0.8175215361004798
v -2.8276765507440489 49.3553309769310715 -29.2617020195148569
vn 0.0904901911896146 6.2071691056595792 -0.9699308294764704
v -5.3857977074482966 49.5854821262903300 -27.7476982859372754
vn 0.1562009528410298 6.1986016045840220 -1.0146778382141020
v -6.0919610691303774 49.6616473498798001 -27.3573961041050779
vn -0.0170538193447222 6.1676798833240909 -1.1977232843780437
v -6.6989086406095364 49.3998431708775172 -28.8794650191385713
vn 0.3048051164220762 6.2116780941262313 -0.8940127701616276
v -6.5929639767242572 49.9012122649537631 -25.9337162627368230
vn 0.0195453639136919 6.2258233973690977 -0.8450275325974169
v -3.4709159374800960 49.3997518913366207 -28.9849992217538706
vn 0.2766736251737631 6.1940753122594092 -1.0159535589830122
v -7.4753363987188566 49.9006510609535994 -26.2263538408486454
vn 0.2780060086046746 6.1820011281948215 -1.0857145020024026
v -8.4426853007604752 49.9015084848485131 -26.4796373321742458
vn 0.0822772892247315 6.2331758293309081 -0.7867234046638283
v -3.0423947869789898 49.6731201782926846 -26.8763031074870398
vn 0.1275129804657446 6.2223182488219368 -0.8627512675598115
v -4.6308092976517976 49.6802145632233731 -27.0220674579463171
vn 0.0821410147299634 6.2266323882183325 -0.8366961103608146
v -3.8822624696780035 49.6252852777519493 -27.3228456773535378
vn 0.2250933333360065 6.2299501044957415 -0.7840007937715514
v -5.0175811588511960 49.8556314634525961 -25.7740265267728859
vn 0.2089958476426156 6.2236361927961212 -0.8362156822373275
v -5.2269492592284399 49.8066022267920516 -26.2246013207027033
vn 0.2041521334300581 6.1747656716325796 -1.1436742669221693
v -7.5752753408239837 49.6676205253061127 -27.5621540598760042
vn 0.2023870756519057 6.2340440368941650 -0.7572698516374468
v -4.5162302004979713 49.8671785877335125 -25.5545029053077783
# 93 vertices, 0 vertices normals

f 2//2 1//1 3//3
f 70//70 8//8 10//10
f 68//68 11//11 12//12
f 54//54 60//60 21//21
f 26//26 27//27 86//86
f 81//81 28//28 15//15
f 30//30 29//29 31//31
f 78//78 30//30 31//31
f 81//81 80//80 28//28
f 38//38 73//73 39//39
f 6//6 93//93 41//41
f 83//83 16//16 34//34
f 30//30 58//58 29//29
f 45//45 58//58 30//30
f 81//81 16//16 32//32
f 18//18 47//47 9//9
f 76//76 43//43 78//78
f 24//24 25//25 48//48
f 48//48 25//25 52//52
f 52//52 51//51 48//48
f 53//53 55//55 79//79
f 53//53 79//79 11//11
f 49//49 17//17 35//35
f 82//82 52//52 25//25
f 13//13 40//40 83//83
f 56//56 57//57 42//42
f 42//42 43//43 76//76
f 20//20 31//31 19//19
f 68//68 12//12 89//89
f 17//17 86//86 4//4
f 34//34 16//16 81//81
f 85//85 13//13 83//83
f 80//80 23//23 20//20
f 20//20 77//77 78//78
f 19//19 80//80 20//20
f 23//23 77//77 20//20
f 28//28 59//59 15//15
f 15//15 34//34 81//81
f 29//29 82//82 31//31
f 29//29 52//52 82//82
f 5//5 60//60 54//54
f 15//15 14//14 34//34
f 55//55 56//56 79//79
f 9//9 47//47 87//87
f 82//82 59//59 28//28
f 40//40 7//7 75//75
f 3//3 35//35 61//61
f 16//16 91//91 32//32
f 50//50 38//38 49//49
f 14//14 86//86 85//85
f 2//2 82//82 25//25
f 25//25 1//1 2//2
f 63//63 87//87 44//44
f 24//24 65//65 1//1
f 1//1 25//25 24//24
f 45//45 30//30 78//78
f 78//78 43//43 45//45
f 68//68 53//53 11//11
f 63//63 53//53 68//68
f 56//56 42//42 79//79
f 64//64 51//51 52//52
f 52//52 29//29 64//64
f 65//65 37//37 1//1
f 17//17 49//49 39//39
f 56//56 55//55 66//66
f 67//67 50//50 36//36
f 49//49 38//38 39//39
f 37//37 69//69 36//36
f 50//50 49//49 35//35
f 68//68 87//87 63//63
f 46//46 17//17 39//39
f 58//58 64//64 29//29
f 73//73 46//46 39//39
f 27//27 62//62 86//86
f 33//33 41//41 93//93
f 59//59 61//61 92//92
f 61//61 17//17 4//4
f 60//60 22//22 21//21
f 12//12 23//23 89//89
f 18//18 5//5 71//71
f 73//73 72//72 46//46
f 72//72 26//26 46//46
f 5//5 54//54 71//71
f 44//44 87//87 47//47
f 12//12 77//77 23//23
f 43//43 42//42 57//57
f 74//74 22//22 60//60
f 60//60 6//6 74//74
f 88//88 32//32 91//91
f 14//14 15//15 92//92
f 6//6 5//5 70//70
f 41//41 74//74 6//6
f 87//87 68//68 89//89
f 70//70 5//5 9//9
f 61//61 35//35 17//17
f 2//2 3//3 61//61
f 61//61 59//59 2//2
f 82//82 2//2 59//59
f 7//7 41//41 33//33
f 8//8 70//70 9//9
f 46//46 26//26 86//86
f 60//60 5//5 6//6
f 16//16 75//75 91//91
f 40//40 75//75 83//83
f 12//12 84//84 77//77
f 37//37 36//36 1//1
f 78//78 77//77 76//76
f 11//11 84//84 12//12
f 84//84 11//11 79//79
f 76//76 84//84 42//42
f 35//35 3//3 36//36
f 1//1 36//36 3//3
f 33//33 93//93 90//90
f 80//80 19//19 28//28
f 82//82 19//19 31//31
f 19//19 82//82 28//28
f 84//84 76//76 77//77
f 78//78 31//31 20//20
f 81//81 32//32 80//80
f 14//14 85//85 34//34
f 83//83 34//34 85//85
f 85//85 62//62 13//13
f 85//85 86//86 62//62
f 9//9 5//5 18//18
f 84//84 79//79 42//42
f 4//4 86//86 14//14
f 23//23 32//32 88//88
f 32//32 23//23 80//80
f 35//35 36//36 50//50
f 8//8 88//88 10//10
f 91//91 10//10 88//88
f 87//87 8//8 9//9
f 8//8 87//87 89//89
f 7//7 33//33 90//90
f 46//46 86//86 17//17
f 16//16 83//83 75//75
f 7//7 90//90 75//75
f 91//91 75//75 90//90
f 92//92 15//15 59//59
f 36//36 69//69 67//67
f 93//93 6//6 70//70
f 89//89 23//23 88//88
f 92//92 61//61 4//4
f 14//14 92//92 4//4
f 10//10 93//93 70//70
f 10//10 90//90 93//93
f 90//90 10//10 91//91
f 8//8 89//89 88//88
# 148 faces, 0 coords texture

# End of File
