####
#
# OBJ File Generated by Meshlab
#
####
# Object 45_C37_M_2.obj
#
# Vertices: 8
# Faces: 6
#
####
vn -0.0226281539741827 0.0952070734703032 -0.0021612671634483
v -85.0000000000000000 50.0000000000000000 -1.6673400000000000
vn -0.7287812602728591 3.0515268684799217 -0.0418153998822755
v -85.0000000000000000 49.9833999999999961 -2.3985950000000003
vn -0.7318451696152938 3.0554431660554706 0.0344530434733764
v -85.0000000000000000 49.9894500000000050 -4.0727150000000005
vn -0.7134861264774576 2.9862909471332113 -0.0439588596429162
v -84.9310000000000116 50.0000000000000000 -2.3897599999999999
vn -0.7451482467584746 3.0473200821274409 0.0073852425980242
v -85.0000000000000000 49.9786000000000001 -3.1915700000000000
vn -0.0103111652915872 0.0430239472539454 0.0004439167365404
v -85.0000000000000000 50.0000000000000000 -5.0952099999999998
vn -0.7331280629508856 3.0614919697594933 0.0337195651428700
v -84.9564999999999912 50.0000000000000000 -4.0848049999999994
vn -0.7289074748750001 2.9835259509951566 0.0128338688962187
v -84.9127000000000010 50.0000000000000000 -3.2069150000000004
# 8 vertices, 0 vertices normals

f 2//2 1//1 4//4
f 5//5 2//2 4//4
f 4//4 8//8 5//5
f 6//6 3//3 7//7
f 7//7 3//3 8//8
f 3//3 5//5 8//8
# 6 faces, 0 coords texture

# End of File
