####
#
# OBJ File Generated by Meshlab
#
####
# Object 4_C1_M_3.obj
#
# Vertices: 55
# Faces: 80
#
####
vn -0.0782420465817263 3.1510577072658972 0.1895074876679714
v 4.3818800000000024 50.0000000000000000 26.6589000000000027
vn -0.0771863408724305 3.1251613784518204 0.1817781824954783
v 3.8175100000000000 50.0000000000000000 26.4125000000000014
vn -0.1530525862476989 6.2692916542403987 0.3885089916730944
v 4.6309401122260496 49.9746150407720009 27.1737002582416274
vn -0.0651686126423679 3.1211728505698417 0.1757916418496290
v 2.4637500000000001 49.8226000000000013 28.9204000000000008
vn -0.1334483747081850 6.2708506621492850 0.3700770811717803
v 3.0424204079086739 49.8713285115770404 28.2810059082453122
vn -0.0523238681516042 3.1355998306353805 0.1869281548508792
v 4.6569750000000001 49.8034999999999997 30.0000000000000000
vn -0.1234515019667866 6.2699102672776457 0.3886741480666516
v 5.1985176718606372 49.8590419914952463 29.2297090280373446
vn -0.0655124100800160 3.1339116228366359 0.2003442062099212
v 5.6345099999999997 49.8185000000000002 30.0000000000000000
vn -0.1655382961441175 6.2682138916455630 0.4005329588308935
v 5.2722859622137257 49.9805406461966726 27.3347657717993364
vn -0.1387134060325074 6.2699437850972330 0.3833359893509694
v 4.3114869768912634 49.9122025854913218 28.0642569019652157
vn -0.1127156105813475 3.0766408339074727 0.2165721940372149
v 8.0954545522918053 49.9998703591232712 28.3543409022426935
vn -0.1877775231193585 6.2659448339589154 0.4255286159152003
v 6.7809241931930302 49.9659503902561752 28.2125868638744031
vn -0.1186321080770266 6.2720115016626954 0.3551602668516762
v 3.9647943232625238 49.8289868235671847 29.3559112428717341
vn -0.1303289932433131 6.2701487220627037 0.3827102557498375
v 4.8246361156703825 49.8846803544613238 28.6886635668206829
vn -0.1292751907212835 6.2711955854907053 0.3657292876183836
v 4.1372290199402935 49.8600474988339997 28.8719562843875579
vn -0.0682577055362579 1.5714933830745288 0.1137894754591184
v 9.9948300000000003 49.9607999999999990 30.0000000000000000
vn -0.0829175361560793 3.1135772850799484 0.1979134367467846
v 5.3196450000000013 50.0000000000000000 27.0504000000000033
vn -0.1511505371373143 6.2688629044623942 0.3960209170666747
v 5.0821087273878129 49.9399266323641271 27.8990463686463031
vn -0.1718832928137186 6.2667739645976628 0.4197613334930333
v 6.5043379489823518 49.9219935761714595 28.7372702946122516
vn -0.0665587456535084 3.1550664043953009 0.1700815003642037
v 2.4610449999999999 49.7932000000000059 29.4496499999999983
vn -0.0284389522285421 1.5435788224962488 0.0798136826219651
v 2.4478499999999999 49.7644999999999982 30.0000000000000000
vn -0.0624748392970298 3.1364652881421247 0.1667916823071694
v 2.7300900000000001 49.7697000000000003 30.0000000000000000
vn -0.1478365848168977 6.2706837789459975 0.3674960367984128
v 3.4158788188941593 49.9530707675622878 27.0534622668430558
vn -0.1524318120704889 6.2685096023682076 0.4009201180999388
v 5.5234070250097211 49.9143720166321074 28.4636625939326571
vn -0.1255643236608990 3.0674860613381085 0.2200151856718813
v 8.9245699999999992 49.9992999999999981 28.8336000000000006
vn -0.1330159324445052 6.2711139008976833 0.3656209248227043
v 3.5037465546404261 49.8640851611148719 28.5692140835208690
vn -0.1351239540812213 3.1603659793197751 0.2292422529045653
v 9.4240899999999996 49.9963499999999996 29.1663500000000013
vn -0.2443631028836303 6.2622158098193355 0.4508633043507690
v 8.5165371688761304 49.9494510367726576 29.2983224664791209
vn -0.0986564392645628 3.0958491695407160 0.2122798238465013
v 7.1773050000000005 50.0000000000000000 27.8894500000000001
vn -0.2110691265159281 6.2641701152521456 0.4401944591952433
v 7.7249777805427469 49.9258529229602814 29.2188993858036845
vn -0.1736966376090593 6.2672226661554795 0.4124181579052235
v 5.9756794235718216 49.9651680881272000 27.8685340397485781
vn -0.0907449413687811 3.1179700384228770 0.2060977156808259
v 6.2148249999999994 50.0000000000000000 27.4460499999999996
vn -0.0702832122907607 3.1546153418079714 0.1857918693266419
v 2.4834499999999999 49.8800000000000026 27.9297000000000004
vn -0.0571119208828706 3.1365580518107525 0.1725549994248076
v 3.6367349999999998 49.7876499999999993 30.0000000000000000
vn -0.1036621788879381 3.1315003303790325 0.2223781828180953
v 7.9464850000000000 49.8774999999999977 30.0000000000000000
vn -0.0734021674036554 3.1342144560491962 0.2041096410139808
v 5.8484100000000003 49.8237000000000023 30.0000000000000000
vn -0.1472570320329601 6.2683611236391510 0.4053777127359398
v 5.8728730141482641 49.8777046425256927 29.1793580948128977
vn -0.1426675402407895 6.2706047648153760 0.3707314783339582
v 3.0713295200955741 49.9164988823450599 27.5445798934707540
vn -0.0716138025358624 3.1340541189865290 0.2047449536841893
v 6.7475699999999996 49.8438999999999979 30.0000000000000000
vn -0.0842743759403851 3.1328988773951192 0.2119722552330400
v 6.9207400000000003 49.8479000000000028 30.0000000000000000
vn -0.0741918037408946 3.1079828592106171 0.1807138809381520
v 3.3517650000000003 50.0000000000000000 26.2148000000000003
vn -0.0281318060617295 1.2170417177121615 0.0716992723780009
v 2.5244599999999999 50.0000000000000000 25.8902000000000001
vn -0.0742658821088008 3.1143958837834140 0.1814712323818779
v 2.4835400000000001 49.8894000000000020 27.7691000000000017
vn -0.1290563027635682 3.1301044045565440 0.2297444298306529
v 9.0002800000000001 49.9172000000000011 30.0000000000000000
vn -0.1159962365905552 3.1310599599361453 0.2267092135077739
v 8.1878600000000006 49.8860999999999990 30.0000000000000000
vn -0.0913883386969361 2.1165629162185775 0.1526939484339533
v 9.9963300000000004 49.9951999999999970 29.5233999999999988
vn -0.1396420232187657 6.2701808680479179 0.3791254469611520
v 3.6959443488267265 49.9217191711446375 27.6825431472751617
vn -0.1572721433471839 6.2672587968584219 0.4180380983921733
v 6.5190253101264268 49.8808772629894364 29.3540466063152756
vn -0.0741510180262748 3.1351009254643891 0.1822731723069171
v 2.5052736250255432 49.9480348524311211 26.7647417212605419
vn -0.2005554999039320 6.2650125372447221 0.4329998271389872
v 7.2747974806962095 49.9562725809630095 28.5662567853465248
vn -0.1170346547031483 6.2710832293474361 0.3715905614476955
v 4.5606605527291189 49.8424369639005462 29.3244548073589151
vn -0.2667531702603765 6.2609156562116102 0.4562516866676724
v 9.3214152320824724 49.9656681980381876 29.5288132956017115
vn -0.1500042696959210 6.2700943938801412 0.3765103602236566
v 3.9857830686584252 49.9655434051256435 27.0735874323081518
vn -0.1840191185563411 6.2657370477530732 0.4301979584465062
v 7.1519107185661763 49.8932678053084757 29.4365345645075607
vn -0.1290412142634785 6.2723447852995378 0.3455982675597151
v 3.1197361448489889 49.8226674053000025 29.1686589697538246
# 55 vertices, 0 vertices normals

f 1//1 2//2 53//53
f 4//4 20//20 55//55
f 7//7 6//6 8//8
f 13//13 6//6 51//51
f 19//19 31//31 24//24
f 30//30 28//28 11//11
f 20//20 21//21 22//22
f 1//1 3//3 17//17
f 7//7 24//24 14//14
f 24//24 18//18 14//14
f 25//25 11//11 28//28
f 27//27 25//25 52//52
f 25//25 28//28 52//52
f 20//20 22//22 55//55
f 33//33 4//4 5//5
f 11//11 29//29 50//50
f 24//24 7//7 37//37
f 10//10 3//3 53//53
f 31//31 9//9 18//18
f 26//26 13//13 15//15
f 2//2 41//41 23//23
f 22//22 34//34 55//55
f 10//10 18//18 3//3
f 45//45 30//30 35//35
f 38//38 43//43 33//33
f 7//7 14//14 51//51
f 48//48 40//40 54//54
f 32//32 17//17 9//9
f 9//9 31//31 32//32
f 29//29 32//32 12//12
f 32//32 31//31 12//12
f 55//55 13//13 26//26
f 41//41 42//42 49//49
f 8//8 36//36 37//37
f 34//34 13//13 55//55
f 46//46 52//52 16//16
f 44//44 28//28 45//45
f 28//28 30//30 45//45
f 49//49 23//23 41//41
f 37//37 48//48 19//19
f 37//37 19//19 24//24
f 37//37 36//36 48//48
f 13//13 34//34 6//6
f 38//38 33//33 5//5
f 30//30 54//54 35//35
f 27//27 52//52 46//46
f 5//5 4//4 26//26
f 10//10 15//15 14//14
f 10//10 26//26 15//15
f 47//47 5//5 26//26
f 5//5 47//47 38//38
f 30//30 11//11 50//50
f 10//10 47//47 26//26
f 18//18 24//24 31//31
f 14//14 18//18 10//10
f 3//3 1//1 53//53
f 12//12 31//31 19//19
f 9//9 3//3 18//18
f 7//7 8//8 37//37
f 49//49 43//43 38//38
f 48//48 36//36 39//39
f 47//47 23//23 38//38
f 53//53 2//2 23//23
f 13//13 51//51 15//15
f 52//52 28//28 44//44
f 53//53 23//23 47//47
f 14//14 15//15 51//51
f 7//7 51//51 6//6
f 54//54 40//40 35//35
f 10//10 53//53 47//47
f 49//49 38//38 23//23
f 50//50 54//54 30//30
f 40//40 48//48 39//39
f 52//52 44//44 16//16
f 50//50 19//19 54//54
f 50//50 29//29 12//12
f 55//55 26//26 4//4
f 3//3 9//9 17//17
f 12//12 19//19 50//50
f 19//19 48//48 54//54
# 80 faces, 0 coords texture

# End of File
