####
#
# OBJ File Generated by Meshlab
#
####
# Object 78_C65_M_2.obj
#
# Vertices: 89
# Faces: 141
#
####
vn -1.5757857949884340 6.0818364193618120 -0.0678097122926500
v 69.0382255623847811 34.3222271141959325 16.8347376435950693
vn -1.4715621819219680 6.1080259961363339 -0.0430032744289086
v 69.5569427131982252 34.4796773709549740 19.1263632499181639
vn -0.8757555238529279 2.9863281636984373 -0.0368901650785807
v 67.6665500000000009 33.9345999999999961 16.2497499999999988
vn -1.7187657712746522 6.0425438476168791 -0.0628957296184700
v 68.1480402464594022 34.0791645836682306 16.4620122543981111
vn -0.8470091869981398 2.9103566626915010 -0.0389742336348926
v 67.7669000000000068 33.9761000000000024 17.6320000000000014
vn -0.8332517668188821 2.8598114534581054 -0.0259479001719245
v 67.8842000000000070 34.0180000000000007 18.2806999999999995
vn -0.5351152336724474 2.1629316602148028 -0.0163066817624615
v 70.8105000000000047 34.7927999999999997 20.8665999999999983
vn -1.4892738848608400 6.1039934889368519 -0.0372104725558611
v 70.3443512926267402 34.6739569295263976 20.4137401798051776
vn -0.8986813792490616 3.0224740747478762 -0.0122642656990733
v 68.1299500000000080 34.0938500000000033 18.9806000000000097
vn -0.8164743371150820 2.8948172022985714 -0.0032654604364756
v 68.4496000000000038 34.1876999999999995 19.9210999999999991
vn -1.6372089367743015 6.0624266315924373 -0.0506254085410671
v 68.8001978593577661 34.2941501750140603 18.8977958362501752
vn -1.5639446617551689 6.0850658594848968 -0.0211718281005999
v 70.0428347183359108 34.5348763282637208 12.1907975559034458
vn -1.5304516047616041 6.0937397527546047 -0.0104228973597043
v 69.5128850455466960 34.4720072481582847 20.3763615077741029
vn -0.7397508084737847 2.7503055449448821 -0.0108328500075550
v 68.6171499999999952 34.2383999999999986 20.2621000000000002
vn -1.5402758252404509 6.0909730408310372 -0.0653684204041642
v 69.2739874981207464 34.3909674604127815 17.6983819007238807
vn -1.6623852250927262 6.0584536579928887 -0.0629415442048241
v 68.5304104113504309 34.1927179123528120 17.2504825420979522
vn -0.8801739314676501 3.0138888903987322 -0.0265287809056855
v 67.7383499999999970 33.9622499999999974 17.2375000000000007
vn -0.7542250685096049 3.2048573344921927 -0.0319979561162058
v 71.2922999999999973 34.8484499999999997 14.2357499999999995
vn -1.4793938149691201 6.1060354534441998 -0.0541659086601020
v 71.0370616513845619 34.7978056508141194 14.9373851428506939
vn -1.5287143937388485 6.0939048528480679 -0.0409992687355604
v 70.5863825798869158 34.6813838277219730 14.2739960872817591
vn -0.8384052781996052 3.0040311483637865 -0.0621323917153157
v 67.6403504893302028 33.9008963847982230 14.6549723750795344
vn -1.7064749805155131 6.0467206567469178 -0.0437533949538833
v 68.5748828668797330 34.1365657075637401 12.7146200354961927
vn -0.8702655248640432 3.0365077570095620 -0.0278038005941751
v 68.0376500000000135 33.9758500000000012 11.9551499999999926
vn -0.8477035092938989 2.9339266350950060 -0.0245611437524525
v 68.1393000000000058 33.9992999999999981 11.4042999999999992
vn -1.7146028660438035 6.0445493422711687 -0.0412137351616859
v 68.7430312669136612 34.1767723695998953 11.8925835190669300
vn -1.7534111772290508 6.0334930189339140 -0.0166708865983348
v 68.5177797455578030 34.1049630584272023 10.8489910849736546
vn -1.6142227603638655 6.0713109929117133 -0.0409973809341174
v 69.6346123109959620 34.4265883087329740 11.5667188505394840
vn -1.6185042980776254 6.0710272626399817 -0.0363172188238345
v 69.4000357877037857 34.3687493222982354 14.0890895488023862
vn -1.6115066882386051 6.0720219442396814 -0.0938991575194775
v 68.7187936460954205 34.1883306667226847 14.4875817122113695
vn -1.5956774972257726 6.0770735050861955 -0.0359396515442570
v 69.8884274404560131 34.4986346289922921 14.3235154766242339
vn -1.5795996660869158 6.0812200982014559 -0.0138828189386429
v 70.0521472854292284 34.5382143748311137 13.0149267822983585
vn -1.6566591035470393 6.0607412182482854 -0.0179532267713694
v 69.3191525884578965 34.3411765752980926 12.4640914860811431
vn -1.6369855231380432 6.0661188249442244 -0.0261502360941036
v 69.2288920349823371 34.3188693666540630 13.2990497996922148
vn -0.6933386490958102 3.0011873225368295 -0.0291857833433524
v 71.2900999999999954 34.8331999999999979 12.1841000000000008
vn -0.6828565467085039 3.0155274540972199 -0.0180588219151671
v 71.3165000000000049 34.8444000000000003 13.2059499999999996
vn -1.4511549844977709 6.1127403168508527 -0.0325694910431871
v 70.8317873967552316 34.7343833005713591 13.0139634195748979
vn -0.7316140825991517 3.0094324291454360 -0.0307992415520858
v 71.2138000000000062 34.8581999999999965 16.6419999999999995
vn -0.8107481514553714 2.7419073523800090 -0.0244729861628099
v 68.2626500000000078 34.0304500000000019 10.9526999999999894
vn -1.6772074452107346 6.0536687022280331 -0.1308326042656383
v 67.9229277485456464 33.9766637132789313 14.5051817331275785
vn -0.6794020136212995 3.0186880333837114 -0.0379337098429785
v 71.2176999999999936 34.7976999999999990 11.1163000000000007
vn -0.7713059333055083 2.7744532332848371 -0.0058120778618303
v 68.7658500000000004 34.1788000000000025 10.1095000000000006
vn -1.6569811118510136 6.0603674658536271 -0.0294307107357139
v 69.0889905931855139 34.2687453303198168 10.2983522185643910
vn -0.4594317396180753 1.8490400596622534 -0.0116711588388459
v 70.2210000000000036 34.6507000000000005 21.4671999999999983
vn -1.5101519239367993 6.0989140824556785 -0.0312396595877505
v 70.0625377865301289 34.6084601336887303 21.0130347710529968
vn -1.5689142155473745 6.0837901280249449 -0.0633950138446103
v 70.2612267351916557 34.6018223582620408 15.0449181231384550
vn -0.8164649935212411 3.3114815889298064 -0.0316397756109127
v 70.7514999999999930 34.7738999999999976 20.3674999999999997
vn -1.4654629472276099 6.1097021339429496 -0.0474860512129270
v 70.5267974976784302 34.7000937460787426 18.2679616776336360
vn -1.5181374009439874 6.0964903833592468 -0.0654477427813699
v 69.6226158956982601 34.4724866360480178 16.9939570873472512
vn -0.6755676868973955 2.8308751964322743 -0.0229423845086285
v 70.9557681591754346 34.8045473222074264 18.5164189936182879
vn -0.5931984521381933 2.3098753798123930 -0.0252366222865218
v 69.5186999999999955 34.3753999999999991 9.3811199999999992
vn -1.5326618679578798 6.0927421530609376 -0.0686978126118484
v 69.8832881284711647 34.4743557080915366 9.9616547097452912
vn -1.4850051348465185 6.1050657043827163 -0.0348403066785014
v 70.2307881388439625 34.6237684475660998 17.5480435689058361
vn -1.4389804271542599 6.1153960200457531 -0.0756949784567390
v 70.5875169131839471 34.6594582429329989 11.2581385657041899
vn -1.5471295044330657 6.0874316582322416 -0.1615257174206895
v 69.0732980921168576 34.2987814354909801 15.3612339434917011
vn -1.4806873787515926 6.1056242201850548 -0.0366888392920732
v 70.7595671679176235 34.7204407278273166 13.6169799091881938
vn -0.6872997364527553 2.7079945240559584 -0.0035695163938818
v 69.3136499999999955 34.4215499999999963 21.0085999999999942
vn -0.8392560782910456 3.4727507558101438 -0.0158655904297127
v 70.8766999999999996 34.7807000000000031 17.6221999999999994
vn -0.7740302333109594 3.2779834614836703 -0.0389498309161746
v 70.8242999999999938 34.7819999999999965 19.4664999999999999
vn -0.8791306813589799 3.0422625611134495 -0.0346535442927068
v 67.8282999999999987 33.9227999999999952 12.9975500000000004
vn -1.7091928336612736 6.0452630031065580 -0.0873277007788993
v 68.1367611993752433 34.0243359063950379 13.7315582117523221
vn -1.5904228049071296 6.0778373458855945 -0.0873391326960634
v 69.4764845381402267 34.3957935717356520 14.9998821375059190
vn -1.6731560034263528 6.0559198001461469 -0.0548512498186584
v 68.5817426089847402 34.1443752458678702 13.4424442998377849
vn -0.7099959960892867 3.0793733939841714 -0.0404901946266501
v 71.2738499999999959 34.8272000000000048 11.9911999999999992
vn -0.7884834897219667 3.2998518395999428 -0.0377583456485507
v 71.2550999999999988 34.8532000000000011 15.7434999999999992
vn -1.5196065772186447 6.0955399236375101 -0.1125863481959544
v 69.7996939866703201 34.5047241334361772 16.2326718894551512
vn -0.6479836134130712 2.6650044399094583 -0.0397767086383014
v 71.3105999999999938 34.8778000000000006 16.3170999999999999
vn -1.6538664416031459 6.0589944053450955 -0.1371131673112519
v 68.2833445246623114 34.1013821203088909 15.4349612289213045
vn -0.5870377359990249 2.4809762754079951 -0.0167908059321849
v 71.1016000000000048 34.7702999999999989 10.1010000000000009
vn -0.8243742829280180 2.8132322045298648 -0.0501895648555533
v 67.6645000000000039 33.8849000000000018 13.7159999999999993
vn -0.6588892753599264 2.7878175323035901 -0.0268042422250026
v 71.3760000000000048 34.8776999999999973 14.9152999999999984
vn -0.5396717258371936 2.2192804783433795 -0.0295093777909947
v 70.5066999999999950 34.6188999999999965 9.3854799999999994
vn -1.4889527389497417 6.1038778009601478 -0.0501618329271709
v 70.5880071972925549 34.7085925648381277 16.8683843619524936
vn -0.8553879516965504 2.9745692095945460 -0.0497489464436819
v 67.6376000000000062 33.9174000000000007 15.5737000000000005
vn -0.6772321866167778 2.8278473078282245 -0.0261104823902047
v 70.8452999999999946 34.7903999999999982 19.7212999999999994
vn -1.6930093128670567 6.0496432343696416 -0.0822426885931481
v 68.4301001763815293 34.1756932007978094 18.1304194502536298
vn -1.5720797812947613 6.0825552789677735 -0.0531160918084021
v 69.7425831059413781 34.4469915240540629 10.7146558980314293
vn -1.7157026845748748 6.0442034838199543 -0.0337480948477513
v 68.9155067114548245 34.2220651738411448 11.1104771640491489
vn -1.4507827697240685 6.1131209750198821 -0.0578631025147974
v 70.3202101260429515 34.6601392169481315 19.2283262138604272
vn -1.4730512727970173 6.1076065489107139 -0.0420194468152740
v 70.6190044273868125 34.6790731453669494 12.3507924292765381
vn -1.5958000924496765 6.0770839018496545 -0.0228108092062607
v 69.9100872714444392 34.5020225701134464 13.6836284353014079
vn -1.4791164136162220 6.1064751308099039 -0.0263592857401875
v 69.9075072439588610 34.5670064952722882 19.8582948942905482
vn -1.5160190356060248 6.0963800802849484 -0.1050390727083500
v 69.2587267103386921 34.3969098419755426 18.3413379851550111
vn -1.5421270605300457 6.0891721499472835 -0.1413319307553491
v 69.5996503016317405 34.4400496707397608 15.6692547287731596
vn -1.5134350081893579 6.0975318429031571 -0.0827113557130828
v 70.5318974865834747 34.6810474239225144 15.8203263586127765
vn -1.5814656455336495 6.0805145306652149 0.0113824782064428
v 69.0566829599081728 34.3557468705377786 19.8033854910669085
vn -1.4578993614043607 6.1113218502212314 -0.0531956871805434
v 70.5503648101148428 34.6420460175618956 10.4226504460514242
vn -1.4680500982119875 6.1088800132197756 -0.0681301586355249
v 69.8951634638064832 34.5486276314246581 18.2576896639292485
vn -1.5681990628882598 6.0820083689380464 -0.1198783592009317
v 68.9285152044462706 34.2867120133216403 16.0707407005304503
vn -1.4793983510733133 6.1058636806519218 -0.0683713928880116
v 70.4637505199377472 34.6364883690730565 11.7804208135757591
# 89 vertices, 0 vertices normals

f 5//5 6//6 75//75
f 44//44 7//7 8//8
f 9//9 10//10 11//11
f 14//14 56//56 13//13
f 13//13 85//85 14//14
f 16//16 4//4 17//17
f 20//20 19//19 18//18
f 2//2 11//11 85//85
f 24//24 23//23 25//25
f 27//27 77//77 25//25
f 28//28 62//62 29//29
f 29//29 61//61 28//28
f 31//31 32//32 33//33
f 35//35 34//34 36//36
f 38//38 24//24 26//26
f 40//40 68//68 86//86
f 41//41 38//38 26//26
f 26//26 42//42 41//41
f 45//45 20//20 30//30
f 7//7 46//46 8//8
f 45//45 19//19 20//20
f 84//84 19//19 45//45
f 71//71 50//50 51//51
f 77//77 42//42 26//26
f 27//27 76//76 77//77
f 80//80 20//20 55//55
f 16//16 1//1 4//4
f 49//49 57//57 47//47
f 56//56 43//43 44//44
f 61//61 45//45 30//30
f 67//67 29//29 39//39
f 18//18 55//55 20//20
f 3//3 17//17 4//4
f 10//10 14//14 85//85
f 31//31 80//80 55//55
f 43//43 7//7 44//44
f 22//22 32//32 25//25
f 54//54 29//29 67//67
f 63//63 40//40 53//53
f 64//64 70//70 19//19
f 19//19 84//84 64//64
f 66//66 64//64 84//84
f 78//78 49//49 47//47
f 49//49 78//78 58//58
f 23//23 59//59 22//22
f 22//22 62//62 33//33
f 39//39 60//60 69//69
f 52//52 48//48 15//15
f 71//71 86//86 68//68
f 59//59 69//69 60//60
f 18//18 35//35 55//55
f 33//33 62//62 28//28
f 69//69 21//21 39//39
f 70//70 18//18 19//19
f 29//29 62//62 60//60
f 31//31 33//33 80//80
f 17//17 5//5 16//16
f 83//83 65//65 84//84
f 39//39 73//73 67//67
f 73//73 39//39 21//21
f 50//50 41//41 42//42
f 24//24 77//77 26//26
f 6//6 9//9 75//75
f 16//16 75//75 15//15
f 67//67 4//4 88//88
f 54//54 61//61 29//29
f 67//67 3//3 4//4
f 73//73 3//3 67//67
f 37//37 66//66 84//84
f 37//37 84//84 72//72
f 61//61 30//30 28//28
f 46//46 74//74 8//8
f 74//74 78//78 81//81
f 74//74 58//58 78//78
f 27//27 12//12 89//89
f 15//15 75//75 82//82
f 71//71 51//51 86//86
f 42//42 51//51 50//50
f 51//51 42//42 76//76
f 76//76 42//42 77//77
f 27//27 53//53 76//76
f 29//29 60//60 39//39
f 5//5 75//75 16//16
f 44//44 8//8 13//13
f 44//44 13//13 56//56
f 81//81 8//8 74//74
f 25//25 77//77 24//24
f 31//31 36//36 79//79
f 27//27 32//32 12//12
f 32//32 27//27 25//25
f 2//2 81//81 78//78
f 78//78 47//47 87//87
f 33//33 32//32 22//22
f 31//31 12//12 32//32
f 79//79 34//34 63//63
f 34//34 79//79 36//36
f 65//65 1//1 48//48
f 80//80 30//30 20//20
f 81//81 13//13 8//8
f 22//22 25//25 23//23
f 65//65 48//48 72//72
f 53//53 89//89 63//63
f 30//30 80//80 28//28
f 80//80 33//33 28//28
f 52//52 57//57 72//72
f 16//16 15//15 1//1
f 31//31 79//79 12//12
f 52//52 72//72 48//48
f 2//2 82//82 11//11
f 83//83 88//88 65//65
f 59//59 60//60 62//62
f 31//31 55//55 36//36
f 61//61 83//83 45//45
f 84//84 45//45 83//83
f 84//84 65//65 72//72
f 54//54 83//83 61//61
f 52//52 87//87 47//47
f 82//82 87//87 15//15
f 82//82 75//75 11//11
f 87//87 82//82 2//2
f 85//85 13//13 81//81
f 85//85 81//81 2//2
f 85//85 11//11 10//10
f 54//54 88//88 83//83
f 62//62 22//22 59//59
f 86//86 53//53 40//40
f 54//54 67//67 88//88
f 79//79 89//89 12//12
f 55//55 35//35 36//36
f 88//88 4//4 1//1
f 27//27 89//89 53//53
f 53//53 86//86 76//76
f 86//86 51//51 76//76
f 78//78 87//87 2//2
f 89//89 79//79 63//63
f 72//72 57//57 37//37
f 1//1 15//15 48//48
f 88//88 1//1 65//65
f 52//52 47//47 57//57
f 87//87 52//52 15//15
f 11//11 75//75 9//9
# 141 faces, 0 coords texture

# End of File
