####
#
# OBJ File Generated by Meshlab
#
####
# Object 81_C66_M_1.obj
#
# Vertices: 10
# Faces: 9
#
####
vn 1.5314721077860787 6.0924020302064470 -0.1167001175177349
v -70.2951000000000050 34.4286000000000030 12.5146999999999995
vn 0.8212023090865239 3.2674689599852229 -0.0606909673210974
v -70.2978999999999985 34.4292999999999978 12.5145000000000000
vn 0.2310118040763334 0.8669876120088995 -0.0112468679548738
v -69.9855000000000018 34.3676999999999992 13.7478999999999996
vn 0.5708672126975027 2.1658277685083340 -0.0197828656965758
v -69.6993999999999971 34.2892999999999972 13.5808000000000000
vn 0.5283937872967255 2.0733929308858743 -0.0227209609806205
v -69.6268000000000029 34.2678999999999974 13.0998999999999999
vn 0.6254995736533219 2.4783818796433086 -0.0493381141344839
v -70.2989000000000033 34.4296999999999969 12.5202000000000009
vn 0.9302683756286586 3.5827668098466265 -0.0364715648057320
v -69.9330999999999960 34.3492999999999995 13.4057999999999993
vn 0.6225934905279810 2.4793058240941104 -0.0226943420205677
v -70.2981000000000051 34.4292999999999978 12.5099999999999998
vn 0.9922681937686672 3.9306792807311219 -0.0478057714404615
v -70.2700999999999993 34.4222999999999999 12.5138999999999996
vn 0.1156460981930724 0.4609469803891615 -0.0029389453034712
v -70.2664000000000044 34.4209999999999994 12.4556000000000004
# 10 vertices, 0 vertices normals

f 4//4 5//5 7//7
f 6//6 7//7 5//5
f 8//8 2//2 1//1
f 2//2 6//6 1//1
f 6//6 9//9 1//1
f 9//9 6//6 5//5
f 9//9 10//10 8//8
f 9//9 8//8 1//1
f 7//7 3//3 4//4
# 9 faces, 0 coords texture

# End of File
