####
#
# OBJ File Generated by Meshlab
#
####
# Object 0_C0_M_0.obj
#
# Vertices: 96
# Faces: 156
#
####
vn 2.3599235381115742 -5.8211299735422024 -0.1006222324199665
v -47.1796254164030131 -19.4893035153092065 -13.8001296029741507
vn 2.4052017265775443 -5.8026414013719059 -0.0758627852498094
v -47.2784379349770134 -19.5377033321328675 -13.2598682686144631
vn 1.1627457855058432 -2.6623515813033984 -0.0544461536294994
v -47.6471499999999963 -19.6696500000000007 -14.5634499999999996
vn 2.7505818932776571 -5.6483195394982015 -0.0322771008236201
v -48.3055456221216843 -20.0191505620366819 -11.8583861832977515
vn 2.9443934140593351 -5.5479431924565015 -0.1020505307688884
v -48.7861104818046982 -20.2569640626037746 -12.4981982648964198
vn 3.2247592077954459 -5.3884094879808400 -0.0925656637360027
v -49.2867692596386391 -20.5247928480976150 -13.1598059922747090
vn 3.2332265415701258 -5.3812035358054313 -0.1343664454191162
v -49.2840861308038711 -20.5348239095045138 -12.5076288712449166
vn 1.9718379148614507 -5.9650550218314224 -0.0745140705102322
v -46.1480982354419282 -19.1419490231624714 -12.1191998855647984
vn 2.1301975642783342 -5.9096307192635154 -0.0764781330948870
v -46.6888298824384478 -19.3325094273226838 -11.7181525254406864
vn 1.4766843806665197 -2.5181226599143760 -0.0493772597283515
v -49.2016327613203543 -20.5084589847651273 -11.7178952886161643
vn 2.5510700394859227 -5.7404602931796305 -0.1220998072678429
v -47.6721013776187732 -19.7044400034129623 -13.6602519423873456
vn 2.2175485241779933 -5.8768034663959776 -0.0867908058863107
v -46.8577776264640775 -19.3561369392669143 -14.1933077299038910
vn 2.0463138706184911 -5.9392954172179024 -0.1140826065218061
v -46.3303456153202760 -19.1716621330588950 -14.0468192902650522
vn 2.4867215653311923 -5.7664903904565836 -0.0446423358759507
v -47.5235842400413517 -19.6497696309488887 -12.4536278136313516
vn 2.6464143032206890 -5.6982625215304497 -0.0526930284012701
v -47.8337332508121875 -19.7940867307596022 -12.6682574374946277
vn 2.6951160293900154 -5.6746780380209536 -0.0894473906760270
v -48.1985460968581734 -19.9581820745060590 -12.9476521229566597
vn 2.6047042813027170 -5.7170737962567104 -0.0797809410675096
v -47.7637700797633684 -19.7543151925504503 -13.1023007358058976
vn 1.0538333971123126 -2.8488127839358866 -0.0221661455577509
v -46.7900000000000063 -19.3720500000000015 -11.4164499999999993
vn 1.1436964634169469 -2.7951595223010735 -0.0238266213585244
v -47.4052000000000007 -19.6106000000000016 -11.4003999999999994
vn 0.8076076020138303 -2.7808428501826659 -0.0488207190852949
v -45.1786000000000030 -18.8186000000000000 -13.6453000000000007
vn 1.7410233170287575 -6.0351794681850777 -0.1228375658923180
v -45.2692093087782652 -18.8530969646693549 -13.0853435823069528
vn 1.8464331698644925 -6.0043070107314387 -0.1174730235842892
v -45.6229058593996442 -18.9530330051668088 -13.4462163357454614
vn 1.3125205660020034 -1.9752957250234131 -0.0243220759272592
v -49.9485000000000028 -20.9453999999999994 -13.7050000000000001
vn 3.2265298647039486 -5.3902197718153797 -0.0715742411042391
v -49.3101064650552630 -20.5356736105912461 -13.6018630118939328
vn 1.4075198576224595 -1.9946785877771891 -0.0423332690958606
v -50.0987999999999971 -21.0827999999999989 -12.2553999999999998
vn 3.6590525775996712 -5.1062080956808700 -0.1236804743206163
v -50.2322403683701282 -21.1628835306818885 -12.9001431668389195
vn 0.9355201720564092 -2.7603020137198566 -0.0519515062246204
v -46.1472273120210801 -19.1038058969399529 -14.3173381608294985
vn 2.4334398766756853 -5.7892907370635527 -0.0894217947329413
v -47.3940425867890625 -19.5913889021916106 -12.7684871583850850
vn 0.5662257615464729 -2.0581851556784398 -0.0393620954047799
v -44.7225999999999999 -18.7058000000000000 -12.9921000000000006
vn 0.8921006703557594 -2.6875953205063112 -0.0377162486827832
v -46.0110000000000028 -19.1029000000000018 -11.5806000000000004
vn 0.9233791948370698 -2.6973788557420799 -0.0525649379223238
v -46.1844999999999999 -19.1639000000000017 -11.4989000000000008
vn 2.0586789743467047 -3.0408875779882685 -0.0527491501774374
v -49.9908000000000001 -20.9754000000000005 -13.5113000000000003
vn 1.7115622408142288 -2.4053412115586985 -0.0671954713588805
v -50.2800000000000011 -21.1900000000000013 -13.1570999999999998
vn 2.2423128335973956 -5.8682002429346918 -0.0556655383491639
v -46.9266094478691471 -19.4156285305299896 -12.1305411936087122
vn 2.2325723566621378 -5.8711486180463854 -0.1119829488822604
v -46.9097573000783967 -19.3975984406267230 -12.9249297587301371
vn 1.3107971387225854 -2.8903884103764539 -0.0172613501383433
v -47.7244999999999990 -19.7498000000000005 -11.4342000000000006
vn 1.5517965836655265 -2.6135887641759052 -0.0029719198107693
v -49.3211999999999975 -20.5387999999999984 -14.1161999999999992
vn 3.0754350861294819 -5.4750705988192454 -0.0605764601877042
v -49.0167152898873937 -20.3587679178898036 -13.8356613553221734
vn 1.3468315715895580 -2.7769212459492132 -0.0155089706378370
v -48.2762000000000029 -20.0070000000000014 -11.4734999999999996
vn 1.3963586862690103 -2.6640487540255617 -0.0342558542999010
v -48.4716000000000022 -20.1061000000000014 -11.4998000000000005
vn 1.2196318907789654 -1.6780284584925509 -0.0456523593414155
v -50.3902000000000001 -21.2761999999999993 -12.9550000000000001
vn 3.5055576098051775 -5.2112803932971339 -0.1208948835850794
v -49.8239525188364496 -20.8705852252472503 -13.0719299125698143
vn 0.8822433921186159 -2.7900946145184897 -0.0623275790667720
v -45.6717000000000013 -18.9537000000000013 -14.0631000000000004
vn 2.8109983043096656 -5.6177896037707438 -0.0947486647688105
v -48.5203608900381482 -20.1082330727882095 -13.3379278690553118
vn 2.6650174815194978 -5.6886519872318004 -0.1177235545725045
v -48.1174761329319125 -19.9140124890963506 -13.4453527577790783
vn 2.6336427269084082 -5.7022971984547652 -0.1411583873555065
v -47.9581862842000248 -19.8258258624017643 -13.9243993568058020
vn 1.1531739692448058 -2.9013237137874839 -0.0440682052474289
v -47.0965000000000060 -19.4453000000000031 -14.5063750000000002
vn 2.7415992121126003 -5.6531138074930869 -0.0452332755229237
v -48.2918100758045625 -20.0119402696205348 -12.4131892440157880
vn 2.6618197376719976 -5.6910429137321978 -0.0318742071201246
v -47.9299005962878013 -19.8392835023024645 -12.2159612218737443
vn 2.7836525173236661 -5.6309230734720348 -0.0971425612492256
v -48.3377870190356447 -20.0018060287010719 -14.1251449207956625
vn 0.8631405013159164 -2.9304979067815968 -0.0340723392350714
v -45.4493000000000009 -18.9262000000000015 -11.9992999999999999
vn 0.9938678377316934 -3.1576137048962378 -0.0335292162905066
v -45.8305000000000007 -19.0438000000000009 -11.7498000000000005
vn 2.1568874162653140 -5.8999188207160902 -0.0982508068314536
v -46.6749099129225016 -19.3161273610032644 -12.6371794355079725
vn 2.2910544197558340 -5.8493606630940489 -0.0874163898894601
v -47.1546407959508187 -19.5056654147129827 -12.4979519149652276
vn 1.6137039226196577 -2.5813339112794598 -0.0321463156127256
v -49.5735000000000028 -20.6915000000000013 -13.9761000000000006
vn 2.0027382066465726 -5.9542158988562335 -0.1023114293536865
v -46.2466208330064461 -19.1668910607598306 -12.6167942018716648
vn 1.0214411951579057 -2.8310523901916245 -0.0346870550821014
v -46.6570999999999998 -19.2801000000000009 -14.4525000000000006
vn 1.8032666973027680 -2.6815393403691030 -0.0636642667893865
v -49.8721999999999994 -20.9242999999999988 -12.1366999999999994
vn 1.3746176738627685 -2.7753882510464907 -0.0433999940055884
v -48.3526999999999987 -20.0043000000000006 -14.4380000000000006
vn 1.4230929253642617 -2.6558645298401018 -0.0203782132281347
v -48.8117999999999981 -20.2445500000000003 -14.3253500000000003
vn 0.7140694751468316 -2.5089877900225130 -0.0433274644942694
v -44.9647999999999968 -18.7810999999999986 -12.3801000000000005
vn 0.8763378161984927 -3.0164379097022884 -0.0559538125458334
v -45.1071000000000026 -18.8246000000000002 -12.2681000000000004
vn 1.3178792180107006 -2.8155827542003884 -0.0501051394936469
v -47.9027000000000029 -19.7889000000000017 -14.5241000000000007
vn 2.1916997164948344 -5.8874080431235827 -0.0884951843644536
v -46.8215113847405107 -19.3587192058549356 -13.3743414108148393
vn 3.0580679770100256 -5.4860004420976693 -0.0950967838340266
v -49.0138302258113114 -20.3737242551014042 -12.8596203075325732
vn 2.0320883604667510 -5.9447233147465095 -0.0879930362319510
v -46.3385425906471795 -19.2096661141630953 -11.8461109400146203
vn 3.0584946998290827 -5.4870625198133007 -0.1260597576510982
v -48.8210969662236423 -20.2949959900603325 -11.7805613230713213
vn 3.1260595755856881 -5.4475903155660728 -0.1457018632380985
v -49.0613741543791093 -20.4197366941172014 -12.1271646956639803
vn 2.9245604430621266 -5.5583022875721708 -0.0752438556810414
v -48.6170685606969073 -20.1740474494662543 -12.0705985664331070
vn 2.4139575996471674 -5.7993673746265344 -0.1183361968335843
v -47.4195426575482486 -19.5814765503379036 -14.2251492833253703
vn 2.2696437962690270 -5.8585806383792063 -0.0559331746031384
v -47.0853858312482458 -19.4854336991303505 -11.6698040111933299
vn 3.3519624072747534 -5.3110882050992512 -0.1770212559371094
v -49.4942357568444606 -20.6830597726039187 -12.0962798694852296
vn 1.8237613117182385 -2.5529288790300333 -0.0594275207570955
v -50.2283499999999989 -21.1679499999999976 -12.5639000000000003
vn 0.8319171681326196 -3.0014555402923828 -0.0554371596063948
v -45.0145749999999936 -18.7763749999999980 -13.4180249999999948
vn 1.9513731485147685 -5.9714905577706654 -0.0925836008576901
v -46.0343538558991625 -19.0854050866587492 -13.3520773740354279
vn 2.4439987066179985 -5.7856971972986626 -0.0518641698622611
v -47.4663817665772427 -19.6305807577793523 -11.9617815538216092
vn 2.9897406000312237 -5.5247074023206313 -0.0855745203606550
v -48.8952198988880369 -20.3025906880707687 -13.3689850349961468
vn 2.6447587572508597 -5.6993041965045723 -0.0353770719476360
v -47.9515476255213073 -19.8541805538238805 -11.7610727962095645
vn 2.8385893418089356 -5.6040370278324119 -0.0902378088922299
v -48.5970817740823477 -20.1544138371175663 -12.8652148485614433
vn 1.8371509920221558 -6.0075316426078791 -0.1095966166107064
v -45.6202009315460515 -18.9622105443996638 -12.9531502581111262
vn 3.4827187765748664 -5.2264809959357388 -0.1221994370727292
v -49.7748971055758958 -20.8521937826460153 -12.4200084699388960
vn 1.8403283770222747 -6.0065666102687310 -0.0921641060933868
v -45.7074226921870306 -18.9976414202466088 -12.3936731996923832
vn 1.7405370164402312 -6.0359256236825161 -0.1183078288603565
v -45.2434743495771343 -18.8556613779773912 -12.6551970943263079
vn 2.8806633328885338 -5.5830405550899140 -0.0883343532705006
v -48.6350179174576596 -20.1587477953622454 -13.8392725635623908
vn 1.6887655891989724 -2.6294221670009055 -0.0931296487832298
v -49.5507999999999953 -20.7251999999999974 -11.9321999999999981
vn 2.1323675866358309 -5.9082358770156507 -0.1196726422039335
v -46.6638676892470770 -19.2926418939851665 -13.7895632817499898
vn 2.7449205895611222 -5.6496839179587530 -0.1305957535996562
v -48.3271310029360492 -20.0060321418793272 -13.6851359813268889
vn 1.5255952357671767 -2.7391799284295830 -0.0541049565277509
v -48.8288000000000011 -20.3027500000000032 -11.6052000000000000
vn 2.0724733083849496 -5.9305273417958650 -0.0769617329378289
v -46.4625905323064146 -19.2319371890709121 -13.1633402886226882
vn 3.3646471503133428 -5.3042723549108040 -0.0991934135067911
v -49.5019730472819148 -20.6668388064638613 -12.8039198353412029
vn 2.0812919337637190 -5.9278086024202086 -0.0790034527111089
v -46.5269002344079610 -19.2707465702936638 -12.1823908193765753
vn 3.4009899683294109 -5.2816258777723606 -0.0874601901835189
v -49.6208770860313138 -20.7307871522782499 -13.4546935764963340
vn 1.9659058306633255 -5.9663010819194717 -0.1251007644669815
v -46.0096137918923418 -19.0703164734964830 -13.7645774366771221
vn 1.9295092502900490 -5.9782571037419157 -0.0941362480340055
v -46.0220953153189640 -19.0872657601478686 -12.9086144833229284
vn 2.0405503328973542 -5.9415654016373995 -0.1067461280171442
v -46.3592330308725096 -19.1920074563430312 -13.5859740328875827
vn 3.5779699201783943 -5.1629406768269224 -0.1130283042621708
v -49.9517204037794755 -20.9683937154286042 -12.6699504383103161
# 96 vertices, 0 vertices normals

f 9//9 91//91 66//66
f 13//13 86//86 12//12
f 2//2 17//17 11//11
f 67//67 68//68 69//69
f 18//18 19//19 71//71
f 15//15 16//16 17//17
f 20//20 74//74 21//21
f 25//25 73//73 96//96
f 28//28 17//17 2//2
f 33//33 32//32 42//42
f 42//42 26//26 33//33
f 2//2 35//35 28//28
f 19//19 36//36 76//76
f 37//37 60//60 38//38
f 39//39 40//40 4//4
f 23//23 92//92 32//32
f 43//43 20//20 22//22
f 45//45 46//46 11//11
f 36//36 39//39 78//78
f 5//5 79//79 48//48
f 51//51 52//52 82//82
f 31//31 18//18 9//9
f 53//53 34//34 54//54
f 28//28 35//35 54//54
f 35//35 53//53 54//54
f 16//16 45//45 17//17
f 45//45 11//11 17//17
f 2//2 11//11 1//1
f 57//57 27//27 13//13
f 13//13 12//12 57//57
f 58//58 25//25 81//81
f 77//77 44//44 79//79
f 60//60 59//59 50//50
f 42//42 90//90 96//96
f 75//75 22//22 80//80
f 14//14 28//28 54//54
f 48//48 16//16 15//15
f 14//14 49//49 15//15
f 49//49 48//48 15//15
f 14//14 15//15 28//28
f 15//15 17//17 28//28
f 50//50 87//87 84//84
f 87//87 44//44 84//84
f 11//11 3//3 70//70
f 47//47 57//57 12//12
f 72//72 58//58 81//81
f 35//35 64//64 89//89
f 89//89 53//53 35//35
f 41//41 33//33 26//26
f 34//34 76//76 54//54
f 24//24 37//37 38//38
f 55//55 37//37 24//24
f 5//5 48//48 69//69
f 88//88 10//10 67//67
f 27//27 43//43 93//93
f 62//62 51//51 82//82
f 6//6 65//65 90//90
f 60//60 50//50 84//84
f 29//29 61//61 83//83
f 59//59 63//63 50//50
f 23//23 55//55 92//92
f 56//56 8//8 91//91
f 80//80 83//83 82//82
f 68//68 10//10 72//72
f 1//1 64//64 2//2
f 64//64 1//1 86//86
f 65//65 5//5 7//7
f 34//34 91//91 9//9
f 1//1 11//11 70//70
f 69//69 40//40 67//67
f 67//67 10//10 68//68
f 69//69 68//68 5//5
f 1//1 70//70 12//12
f 18//18 71//71 9//9
f 71//71 19//19 76//76
f 22//22 20//20 21//21
f 58//58 72//72 85//85
f 73//73 41//41 26//26
f 26//26 96//96 73//73
f 25//25 96//96 81//81
f 74//74 29//29 21//21
f 66//66 30//30 31//31
f 31//31 9//9 66//66
f 75//75 93//93 22//22
f 34//34 71//71 76//76
f 71//71 34//34 9//9
f 38//38 77//77 24//24
f 24//24 77//77 6//6
f 78//78 39//39 4//4
f 36//36 78//78 76//76
f 79//79 16//16 48//48
f 70//70 3//3 47//47
f 70//70 47//47 12//12
f 4//4 49//49 78//78
f 3//3 46//46 63//63
f 63//63 46//46 50//50
f 14//14 54//54 76//76
f 56//56 82//82 8//8
f 52//52 30//30 8//8
f 66//66 8//8 30//30
f 52//52 8//8 82//82
f 6//6 77//77 65//65
f 65//65 77//77 79//79
f 65//65 79//79 5//5
f 2//2 64//64 35//35
f 42//42 96//96 26//26
f 75//75 95//95 93//93
f 21//21 80//80 22//22
f 45//45 16//16 44//44
f 46//46 3//3 11//11
f 83//83 61//61 62//62
f 62//62 82//82 83//83
f 21//21 83//83 80//80
f 84//84 44//44 77//77
f 84//84 77//77 38//38
f 72//72 10//10 85//85
f 84//84 38//38 60//60
f 87//87 50//50 46//46
f 64//64 86//86 95//95
f 44//44 16//16 79//79
f 69//69 48//48 4//4
f 12//12 86//86 1//1
f 4//4 40//40 69//69
f 67//67 40//40 88//88
f 81//81 90//90 7//7
f 49//49 4//4 48//48
f 53//53 89//89 56//56
f 6//6 90//90 42//42
f 78//78 49//49 76//76
f 14//14 76//76 49//49
f 29//29 83//83 21//21
f 87//87 46//46 45//45
f 45//45 44//44 87//87
f 5//5 68//68 7//7
f 56//56 89//89 94//94
f 56//56 94//94 82//82
f 7//7 72//72 81//81
f 72//72 7//7 68//68
f 90//90 65//65 7//7
f 91//91 8//8 66//66
f 6//6 92//92 24//24
f 92//92 42//42 32//32
f 92//92 55//55 24//24
f 53//53 91//91 34//34
f 91//91 53//53 56//56
f 89//89 64//64 95//95
f 92//92 6//6 42//42
f 27//27 93//93 13//13
f 93//93 43//43 22//22
f 75//75 80//80 94//94
f 86//86 13//13 95//95
f 93//93 95//95 13//13
f 94//94 89//89 75//75
f 94//94 80//80 82//82
f 89//89 95//95 75//75
f 81//81 96//96 90//90
# 156 faces, 0 coords texture

# End of File
